;TYPE=PLATED
;Layer: PTH_Through_Via
;EasyEDA Pro v2.2.46.11, 2026-03-26 18:28:21
;Gerber Generator version 0.3
M48
METRIC,LZ,0000.00000
;Hole size 1 = 0.30500 METRIC
T01C0.30500
%
G05
G90
T01
X65.786Y34.93364
X58.21861Y35.63439
X58.98061Y41.57823
X58.5166Y40.9646
X77.6947Y38.80309
X77.15588Y38.26427
X44.2212Y45.58417
X44.2212Y44.82217
X43.22859Y42.4432
X42.46659Y42.4432
X18.669Y41.148
X34.2249Y39.11596
X45.212Y46.228
X49.95433Y48.514
X43.307Y52.578
X39.624Y46.355
X49.911Y50.165
X54.61Y37.51761
X70.993Y34.09798
X91.948Y49.70961
X87.757Y46.355
X85.725Y44.196
M30