;TYPE=PLATED
;Layer: PTH_Through
;EasyEDA Pro v2.2.46.11, 2026-03-26 18:28:21
;Gerber Generator version 0.3
M48
METRIC,LZ,0000.00000
;Hole size 1 = 0.30500 METRIC
T01C0.30500
;Hole size 2 = 0.60000 METRIC
T02C0.60000
;Hole size 3 = 0.70002 METRIC
T03C0.70002
%
G05
G90
T01
X65.786Y34.93364
X58.21861Y35.63439
X58.98061Y41.57823
X58.5166Y40.9646
X77.6947Y38.80309
X77.15588Y38.26427
X44.2212Y45.58417
X44.2212Y44.82217
X43.22859Y42.4432
X42.46659Y42.4432
X18.669Y41.148
X34.2249Y39.11596
X45.212Y46.228
X49.95433Y48.514
X43.307Y52.578
X39.624Y46.355
X49.911Y50.165
X54.61Y37.51761
X70.993Y34.09798
X91.948Y49.70961
X87.757Y46.355
X85.725Y44.196
T02
X95.76896Y39.74407G85X96.66896Y39.74407
X95.76897Y48.39409G85X96.669Y48.39409
X100.11903Y39.74401G85X100.71903Y39.74401
X100.11903Y48.39399G85X100.71903Y48.39399
X54.85707Y34.27904G85X54.85707Y33.37904
X63.50709Y34.27903G85X63.50709Y33.379
X54.85702Y29.92897G85X54.85702Y29.32897
X63.50699Y29.92897G85X63.50699Y29.32897
X74.41507Y34.15204G85X74.41507Y33.25204
X83.06509Y34.15203G85X83.06509Y33.252
X74.41502Y29.80197G85X74.41502Y29.20197
X83.06499Y29.80197G85X83.06499Y29.20197
T03
X30.83408Y31.04902G85X30.83408Y29.24905
X17.93392Y31.04902G85X17.93392Y29.24905
X49.37608Y31.04902G85X49.37608Y29.24905
X36.47592Y31.04902G85X36.47592Y29.24905
M30