G04 Layer: BottomLayer*
G04 EasyEDA Pro v2.2.46.11, 2026-03-26 18:28:20*
G04 Gerber Generator version 0.3*
G04 Scale: 100 percent, Rotated: No, Reflected: No*
G04 Dimensions in millimeters*
G04 Leading zeros omitted, absolute positions, 4 integers and 5 decimals*
G04 Generated by one-click*
%FSLAX45Y45*%
%MOMM*%
%ADD10C,0.2032*%
%ADD11C,0.254*%
%ADD12O,2.0X1.1*%
%ADD13O,1.8X1.2*%
%ADD14O,1.1X2.0*%
%ADD15O,1.2X1.8*%
%ADD16O,1.2065X3.09999*%
%ADD17O,1.2X3.09999*%
%ADD18C,0.61*%
G75*


G04 Copper Start*
G36*
G01X3012729Y2855214D02*
G01X1864071Y2855214D01*
G01X1874780Y2869343D01*
G01X1882702Y2885203D01*
G01X1887566Y2902251D01*
G01X1889206Y2919904D01*
G01X1889206Y3109904D01*
G01X1887365Y3128596D01*
G01X1881913Y3146570D01*
G01X1873059Y3163135D01*
G01X1861143Y3177654D01*
G01X1846624Y3189570D01*
G01X1830059Y3198424D01*
G01X1812085Y3203876D01*
G01X1793392Y3205717D01*
G01X1774700Y3203876D01*
G01X1756726Y3198424D01*
G01X1740161Y3189570D01*
G01X1725642Y3177654D01*
G01X1713726Y3163135D01*
G01X1704872Y3146570D01*
G01X1699420Y3128596D01*
G01X1697579Y3109904D01*
G01X1697579Y2919904D01*
G01X1699219Y2902251D01*
G01X1704083Y2885203D01*
G01X1712005Y2869343D01*
G01X1722714Y2855214D01*
G01X393700Y2855214D01*
G01X357618Y2857105D01*
G01X321932Y2862757D01*
G01X287032Y2872109D01*
G01X253300Y2885057D01*
G01X221107Y2901460D01*
G01X190805Y2921139D01*
G01X162725Y2943877D01*
G01X137177Y2969425D01*
G01X114439Y2997505D01*
G01X94760Y3027807D01*
G01X78357Y3060000D01*
G01X65409Y3093732D01*
G01X56057Y3128632D01*
G01X50405Y3164318D01*
G01X48514Y3200400D01*
G01X48514Y3600450D01*
G01X300736Y3600450D01*
G01X302678Y3565868D01*
G01X308480Y3531721D01*
G01X318068Y3498439D01*
G01X331323Y3466439D01*
G01X348077Y3436124D01*
G01X368120Y3407876D01*
G01X391200Y3382050D01*
G01X417026Y3358970D01*
G01X445274Y3338927D01*
G01X475589Y3322173D01*
G01X507589Y3308918D01*
G01X540871Y3299330D01*
G01X575018Y3293528D01*
G01X609600Y3291586D01*
G01X609600Y3291586D01*
G01X644182Y3293528D01*
G01X678329Y3299330D01*
G01X711611Y3308918D01*
G01X743611Y3322173D01*
G01X773926Y3338927D01*
G01X802174Y3358970D01*
G01X828000Y3382050D01*
G01X851080Y3407876D01*
G01X865295Y3427912D01*
G01X5394888Y3427912D01*
G01X5394888Y3337912D01*
G01X5396807Y3319341D01*
G01X5402483Y3301555D01*
G01X5411676Y3285306D01*
G01X5423998Y3271280D01*
G01X5438927Y3260070D01*
G01X5455834Y3252150D01*
G01X5474002Y3247855D01*
G01X5492666Y3247365D01*
G01X5511034Y3250703D01*
G01X5528333Y3257726D01*
G01X5543829Y3268138D01*
G01X5556869Y3281499D01*
G01X5566901Y3297245D01*
G01X5576205Y3283934D01*
G01X5588297Y3273093D01*
G01X5602541Y3265291D01*
G01X5618188Y3260941D01*
G01X5634415Y3260269D01*
G01X5650368Y3263311D01*
G01X5665208Y3269908D01*
G01X5678155Y3279713D01*
G01X5688527Y3292209D01*
G01X5695781Y3306740D01*
G01X5699533Y3322541D01*
G01X5699533Y3322541D01*
G01X5699586Y3338781D01*
G01X5695938Y3354607D01*
G01X5688781Y3369185D01*
G01X5678490Y3381749D01*
G01X5665608Y3391638D01*
G01X5650812Y3398333D01*
G01X5634879Y3401481D01*
G01X5618649Y3400916D01*
G01X5602974Y3396668D01*
G01X5588679Y3388960D01*
G01X5576515Y3378199D01*
G01X5576515Y3427912D01*
G01X5574531Y3446793D01*
G01X5568664Y3464849D01*
G01X5559171Y3481291D01*
G01X5546468Y3495399D01*
G01X5531108Y3506559D01*
G01X5513765Y3514281D01*
G01X5495194Y3518228D01*
G01X5476209Y3518228D01*
G01X5457638Y3514281D01*
G01X5440295Y3506559D01*
G01X5424935Y3495399D01*
G01X5412232Y3481291D01*
G01X5402739Y3464849D01*
G01X5396872Y3446793D01*
G01X5394888Y3427912D01*
G01X865295Y3427912D01*
G01X871123Y3436124D01*
G01X887877Y3466439D01*
G01X901132Y3498439D01*
G01X910720Y3531721D01*
G01X915407Y3559304D01*
G01X5755676Y3559304D01*
G01X5758372Y3544289D01*
G01X5764428Y3530288D01*
G01X5773523Y3518041D01*
G01X5785175Y3508197D01*
G01X5798770Y3501275D01*
G01X5813586Y3497644D01*
G01X5828840Y3497494D01*
G01X5843724Y3500833D01*
G01X5857452Y3507486D01*
G01X6306937Y3507486D01*
G01X6293539Y3498480D01*
G01X6281947Y3487245D01*
G01X6272528Y3474134D01*
G01X6265579Y3459563D01*
G01X6261319Y3443991D01*
G01X6259885Y3427912D01*
G01X6259885Y3378227D01*
G01X6247718Y3388980D01*
G01X6233422Y3396680D01*
G01X6217748Y3400920D01*
G01X6201520Y3401478D01*
G01X6185592Y3398326D01*
G01X6170800Y3391628D01*
G01X6157923Y3381737D01*
G01X6147637Y3369173D01*
G01X6140484Y3354596D01*
G01X6136839Y3338773D01*
G01X6136894Y3322536D01*
G01X6140646Y3306738D01*
G01X6147897Y3292210D01*
G01X6158268Y3279715D01*
G01X6171212Y3269912D01*
G01X6186048Y3263314D01*
G01X6201998Y3260270D01*
G01X6218222Y3260938D01*
G01X6233867Y3265284D01*
G01X6248110Y3273080D01*
G01X6260204Y3283915D01*
G01X6269511Y3297220D01*
G01X6279547Y3281480D01*
G01X6292589Y3268124D01*
G01X6308086Y3257716D01*
G01X6325384Y3250698D01*
G01X6343751Y3247364D01*
G01X6362412Y3247857D01*
G01X6380578Y3252154D01*
G01X6397482Y3260075D01*
G01X6412408Y3271286D01*
G01X6424728Y3285311D01*
G01X6433919Y3301559D01*
G01X6439594Y3319343D01*
G01X6441512Y3337912D01*
G01X6441512Y3415212D01*
G01X7350688Y3415212D01*
G01X7350688Y3325212D01*
G01X7352607Y3306641D01*
G01X7358283Y3288855D01*
G01X7367476Y3272606D01*
G01X7379798Y3258580D01*
G01X7394727Y3247370D01*
G01X7411634Y3239450D01*
G01X7429802Y3235155D01*
G01X7448466Y3234665D01*
G01X7466834Y3238003D01*
G01X7484133Y3245026D01*
G01X7499629Y3255438D01*
G01X7512669Y3268799D01*
G01X7522701Y3284545D01*
G01X7532005Y3271234D01*
G01X7544097Y3260393D01*
G01X7558341Y3252591D01*
G01X7573988Y3248241D01*
G01X7590215Y3247569D01*
G01X7606168Y3250611D01*
G01X7621008Y3257208D01*
G01X7633955Y3267013D01*
G01X7644327Y3279509D01*
G01X7651581Y3294040D01*
G01X7655333Y3309841D01*
G01X7655386Y3326073D01*
G01X8092639Y3326073D01*
G01X8092694Y3309836D01*
G01X8092694Y3309836D01*
G01X8096446Y3294038D01*
G01X8103697Y3279510D01*
G01X8114068Y3267015D01*
G01X8127012Y3257212D01*
G01X8141848Y3250614D01*
G01X8157798Y3247570D01*
G01X8174022Y3248238D01*
G01X8189667Y3252584D01*
G01X8203910Y3260380D01*
G01X8216004Y3271215D01*
G01X8225311Y3284520D01*
G01X8235347Y3268780D01*
G01X8248389Y3255424D01*
G01X8263886Y3245016D01*
G01X8281184Y3237998D01*
G01X8299551Y3234664D01*
G01X8318212Y3235157D01*
G01X8336378Y3239454D01*
G01X8353282Y3247375D01*
G01X8368208Y3258586D01*
G01X8380528Y3272611D01*
G01X8389719Y3288859D01*
G01X8395394Y3306643D01*
G01X8397312Y3325212D01*
G01X8397312Y3415212D01*
G01X8395328Y3434093D01*
G01X8389461Y3452149D01*
G01X8379968Y3468591D01*
G01X8367265Y3482699D01*
G01X8351905Y3493859D01*
G01X8334562Y3501581D01*
G01X8315991Y3505528D01*
G01X8297006Y3505528D01*
G01X8278435Y3501581D01*
G01X8261092Y3493859D01*
G01X8245732Y3482699D01*
G01X8233029Y3468591D01*
G01X8223536Y3452149D01*
G01X8217669Y3434093D01*
G01X8215685Y3415212D01*
G01X8215685Y3365527D01*
G01X8203518Y3376280D01*
G01X8189222Y3383980D01*
G01X8173548Y3388220D01*
G01X8157320Y3388778D01*
G01X8141392Y3385626D01*
G01X8126600Y3378928D01*
G01X8113723Y3369037D01*
G01X8103437Y3356473D01*
G01X8096284Y3341896D01*
G01X8092639Y3326073D01*
G01X7655386Y3326073D01*
G01X7655386Y3326081D01*
G01X7651738Y3341907D01*
G01X7644581Y3356485D01*
G01X7634290Y3369049D01*
G01X7621408Y3378938D01*
G01X7606612Y3385633D01*
G01X7590679Y3388781D01*
G01X7574449Y3388216D01*
G01X7558774Y3383968D01*
G01X7544479Y3376260D01*
G01X7532315Y3365499D01*
G01X7532315Y3415212D01*
G01X7532315Y3415212D01*
G01X7530331Y3434093D01*
G01X7524464Y3452149D01*
G01X7514971Y3468591D01*
G01X7502268Y3482699D01*
G01X7486908Y3493859D01*
G01X7469565Y3501581D01*
G01X7450994Y3505528D01*
G01X7432009Y3505528D01*
G01X7413438Y3501581D01*
G01X7396095Y3493859D01*
G01X7380735Y3482699D01*
G01X7368032Y3468591D01*
G01X7358539Y3452149D01*
G01X7352672Y3434093D01*
G01X7350688Y3415212D01*
G01X6441512Y3415212D01*
G01X6441512Y3427912D01*
G01X6440378Y3442221D01*
G01X6437003Y3456173D01*
G01X6431471Y3469419D01*
G01X6441832Y3459059D01*
G01X6451879Y3451349D01*
G01X6463580Y3446503D01*
G01X6476136Y3444850D01*
G01X6533390Y3444850D01*
G01X6545761Y3435751D01*
G01X6559894Y3429743D01*
G01X6575029Y3427146D01*
G01X6590356Y3428100D01*
G01X6605053Y3432554D01*
G01X6618331Y3440269D01*
G01X6629478Y3450832D01*
G01X6637897Y3463675D01*
G01X6643136Y3478110D01*
G01X6644914Y3493364D01*
G01X6643136Y3508617D01*
G01X6637897Y3523052D01*
G01X6629478Y3535896D01*
G01X6618331Y3546458D01*
G01X6605053Y3554173D01*
G01X6590356Y3558627D01*
G01X6575029Y3559581D01*
G01X6559894Y3556985D01*
G01X6545761Y3550976D01*
G01X6533390Y3541878D01*
G01X6496232Y3541878D01*
G01X6447805Y3590305D01*
G01X6437757Y3598014D01*
G01X6426056Y3602861D01*
G01X6413500Y3604514D01*
G01X5873922Y3604514D01*
G01X5873922Y3604514D01*
G01X5863159Y3615324D01*
G01X5850210Y3623388D01*
G01X5835761Y3628280D01*
G01X5820576Y3629741D01*
G01X5805460Y3627693D01*
G01X5791211Y3622246D01*
G01X5778584Y3613686D01*
G01X5768247Y3602467D01*
G01X5760748Y3589184D01*
G01X5756482Y3574537D01*
G01X5755676Y3559304D01*
G01X915407Y3559304D01*
G01X916522Y3565868D01*
G01X918464Y3600450D01*
G01X918464Y4103003D01*
G01X5785669Y4103003D01*
G01X5785946Y4087557D01*
G01X5789789Y4072595D01*
G01X5796989Y4058927D01*
G01X5807157Y4047297D01*
G01X5819739Y4038334D01*
G01X5834053Y4032526D01*
G01X5849323Y4030187D01*
G01X5856882Y4022628D01*
G01X5866930Y4014918D01*
G01X5878631Y4010072D01*
G01X5891187Y4008419D01*
G01X5896237Y4008419D01*
G01X5911891Y3992765D01*
G01X5921939Y3985055D01*
G01X5933639Y3980208D01*
G01X5946196Y3978555D01*
G01X7236462Y3978555D01*
G01X7340262Y3874755D01*
G01X7350309Y3867046D01*
G01X7362010Y3862199D01*
G01X7374566Y3860546D01*
G01X7627849Y3860546D01*
G01X7630264Y3849946D01*
G01X7634978Y3840150D01*
G01X7641756Y3831650D01*
G01X7649315Y3824091D01*
G01X7651850Y3808123D01*
G01X7658174Y3793243D01*
G01X7667910Y3780336D01*
G01X7680481Y3770168D01*
G01X7695139Y3763345D01*
G01X7711012Y3760271D01*
G01X7711012Y3760271D01*
G01X7727157Y3761130D01*
G01X7742614Y3765871D01*
G01X7756465Y3774211D01*
G01X7767886Y3785654D01*
G01X7776199Y3799522D01*
G01X7780908Y3814989D01*
G01X7796375Y3819698D01*
G01X7810242Y3828011D01*
G01X7821686Y3839432D01*
G01X7830026Y3853282D01*
G01X7834767Y3868740D01*
G01X7835626Y3884885D01*
G01X7832552Y3900758D01*
G01X7825729Y3915416D01*
G01X7815561Y3927986D01*
G01X7802654Y3937723D01*
G01X7787774Y3944047D01*
G01X7771806Y3946582D01*
G01X7764247Y3954141D01*
G01X7754199Y3961851D01*
G01X7742499Y3966697D01*
G01X7729942Y3968350D01*
G01X7724892Y3968350D01*
G01X7709349Y3983894D01*
G01X9486572Y3983894D01*
G01X9486572Y3964909D01*
G01X9490519Y3946338D01*
G01X9498241Y3928995D01*
G01X9509401Y3913635D01*
G01X9523509Y3900932D01*
G01X9539951Y3891439D01*
G01X9558007Y3885572D01*
G01X9576888Y3883588D01*
G01X9666888Y3883588D01*
G01X9685459Y3885507D01*
G01X9703245Y3891183D01*
G01X9719494Y3900376D01*
G01X9733520Y3912698D01*
G01X9744730Y3927627D01*
G01X9752650Y3944534D01*
G01X9756945Y3962702D01*
G01X9757435Y3981366D01*
G01X9754097Y3999734D01*
G01X9747074Y4017033D01*
G01X9736662Y4032529D01*
G01X9723301Y4045569D01*
G01X9707555Y4055601D01*
G01X9720866Y4064905D01*
G01X9731707Y4076997D01*
G01X9739509Y4091241D01*
G01X9743859Y4106888D01*
G01X9744531Y4123115D01*
G01X9741489Y4139068D01*
G01X9734892Y4153908D01*
G01X9725087Y4166855D01*
G01X9712591Y4177227D01*
G01X9698060Y4184481D01*
G01X9682259Y4188233D01*
G01X9666019Y4188286D01*
G01X9650193Y4184638D01*
G01X9635615Y4177481D01*
G01X9623051Y4167190D01*
G01X9613162Y4154308D01*
G01X9606467Y4139512D01*
G01X9603319Y4123579D01*
G01X9603884Y4107349D01*
G01X9608132Y4091674D01*
G01X9615840Y4077379D01*
G01X9626601Y4065215D01*
G01X9576888Y4065215D01*
G01X9576888Y4065215D01*
G01X9558007Y4063231D01*
G01X9539951Y4057364D01*
G01X9523509Y4047871D01*
G01X9509401Y4035168D01*
G01X9498241Y4019808D01*
G01X9490519Y4002465D01*
G01X9486572Y3983894D01*
G01X7709349Y3983894D01*
G01X7709238Y3984005D01*
G01X7699191Y3991714D01*
G01X7687490Y3996561D01*
G01X7674934Y3998214D01*
G01X7411495Y3998214D01*
G01X7307695Y4102014D01*
G01X7297648Y4109723D01*
G01X7285947Y4114570D01*
G01X7273391Y4116223D01*
G01X5986102Y4116223D01*
G01X5986102Y4118295D01*
G01X5984449Y4130852D01*
G01X5979602Y4142552D01*
G01X5971892Y4152600D01*
G01X5964333Y4160159D01*
G01X5962229Y4174555D01*
G01X5957036Y4188145D01*
G01X5949004Y4200276D01*
G01X5938520Y4210364D01*
G01X5926089Y4217922D01*
G01X5912308Y4222588D01*
G01X5897842Y4224136D01*
G01X5883386Y4222493D01*
G01X5869637Y4217736D01*
G01X5857256Y4210096D01*
G01X5846838Y4199940D01*
G01X5838887Y4187756D01*
G01X5833783Y4174132D01*
G01X5831774Y4159722D01*
G01X5817676Y4153405D01*
G01X5805423Y4143997D01*
G01X5795679Y4132010D01*
G01X5788973Y4118093D01*
G01X5785669Y4103003D01*
G01X918464Y4103003D01*
G01X918464Y4245441D01*
G01X4180354Y4245441D01*
G01X4182054Y4229363D01*
G01X4187593Y4214173D01*
G01X4196644Y4200776D01*
G01X4208668Y4189967D01*
G01X4222950Y4182389D01*
G01X4238641Y4178492D01*
G01X4254809Y4178508D01*
G01X4270492Y4182437D01*
G01X4284759Y4190043D01*
G01X4299026Y4182437D01*
G01X4314709Y4178508D01*
G01X4330877Y4178492D01*
G01X4346569Y4182389D01*
G01X4360851Y4189967D01*
G01X4372874Y4200776D01*
G01X4381925Y4214173D01*
G01X4387465Y4229363D01*
G01X4389164Y4245441D01*
G01X4386922Y4261453D01*
G01X4380872Y4276446D01*
G01X4371373Y4289530D01*
G01X4371373Y4300220D01*
G01X4371373Y4300220D01*
G01X4369720Y4312776D01*
G01X4364874Y4324477D01*
G01X4357164Y4334524D01*
G01X4353593Y4338095D01*
G01X4353593Y4435375D01*
G01X4366220Y4433703D01*
G01X4376910Y4433703D01*
G01X4389993Y4424204D01*
G01X4404987Y4418154D01*
G01X4420998Y4415912D01*
G01X4437077Y4417611D01*
G01X4452266Y4423151D01*
G01X4465663Y4432202D01*
G01X4476472Y4444225D01*
G01X4484051Y4458507D01*
G01X4487947Y4474199D01*
G01X4487931Y4490366D01*
G01X4484003Y4506050D01*
G01X4476396Y4520317D01*
G01X4484003Y4534583D01*
G01X4487931Y4550267D01*
G01X4487947Y4566435D01*
G01X4484051Y4582126D01*
G01X4476472Y4596408D01*
G01X4465663Y4608432D01*
G01X4452266Y4617483D01*
G01X4437077Y4623022D01*
G01X4420998Y4624721D01*
G01X4404987Y4622479D01*
G01X4389993Y4616429D01*
G01X4376910Y4606931D01*
G01X4366220Y4606931D01*
G01X4353663Y4605278D01*
G01X4341963Y4600431D01*
G01X4331915Y4592721D01*
G01X4328344Y4589151D01*
G01X4306206Y4589151D01*
G01X4293650Y4587498D01*
G01X4281949Y4582651D01*
G01X4271901Y4574941D01*
G01X4230135Y4533174D01*
G01X4222425Y4523127D01*
G01X4217578Y4511426D01*
G01X4215925Y4498870D01*
G01X4215925Y4338095D01*
G01X4212354Y4334524D01*
G01X4204645Y4324477D01*
G01X4199798Y4312776D01*
G01X4198145Y4300220D01*
G01X4198145Y4289530D01*
G01X4188646Y4276446D01*
G01X4182596Y4261453D01*
G01X4180354Y4245441D01*
G01X918464Y4245441D01*
G01X918464Y4848891D01*
G01X9486572Y4848891D01*
G01X9486572Y4829906D01*
G01X9490519Y4811335D01*
G01X9498241Y4793992D01*
G01X9509401Y4778632D01*
G01X9523509Y4765929D01*
G01X9539951Y4756436D01*
G01X9558007Y4750569D01*
G01X9576888Y4748585D01*
G01X9626573Y4748585D01*
G01X9615820Y4736418D01*
G01X9608120Y4722122D01*
G01X9603880Y4706448D01*
G01X9603322Y4690220D01*
G01X9606474Y4674292D01*
G01X9613172Y4659500D01*
G01X9623063Y4646623D01*
G01X9635627Y4636337D01*
G01X9650204Y4629184D01*
G01X9666027Y4625539D01*
G01X9682264Y4625594D01*
G01X9698062Y4629346D01*
G01X9712590Y4636597D01*
G01X9725085Y4646968D01*
G01X9734888Y4659912D01*
G01X9741486Y4674748D01*
G01X9744530Y4690698D01*
G01X9743862Y4706922D01*
G01X9739516Y4722567D01*
G01X9731720Y4736810D01*
G01X9720885Y4748904D01*
G01X9707580Y4758211D01*
G01X9723320Y4768247D01*
G01X9736676Y4781289D01*
G01X9747084Y4796786D01*
G01X9754102Y4814084D01*
G01X9757436Y4832451D01*
G01X9756943Y4851112D01*
G01X9752646Y4869278D01*
G01X9744725Y4886182D01*
G01X9733514Y4901108D01*
G01X9719489Y4913428D01*
G01X9703241Y4922619D01*
G01X9685457Y4928294D01*
G01X9666888Y4930212D01*
G01X9666888Y4930212D01*
G01X9576888Y4930212D01*
G01X9558007Y4928228D01*
G01X9539951Y4922361D01*
G01X9523509Y4912868D01*
G01X9509401Y4900165D01*
G01X9498241Y4884805D01*
G01X9490519Y4867462D01*
G01X9486572Y4848891D01*
G01X918464Y4848891D01*
G01X918464Y5149850D01*
G01X916522Y5184432D01*
G01X910720Y5218579D01*
G01X901132Y5251861D01*
G01X887877Y5283861D01*
G01X871123Y5314176D01*
G01X851080Y5342424D01*
G01X828000Y5368250D01*
G01X802174Y5391330D01*
G01X773926Y5411373D01*
G01X743611Y5428127D01*
G01X711611Y5441382D01*
G01X678329Y5450970D01*
G01X644182Y5456772D01*
G01X609600Y5458714D01*
G01X575018Y5456772D01*
G01X540871Y5450970D01*
G01X507589Y5441382D01*
G01X475589Y5428127D01*
G01X445274Y5411373D01*
G01X417026Y5391330D01*
G01X391200Y5368250D01*
G01X368120Y5342424D01*
G01X348077Y5314176D01*
G01X331323Y5283861D01*
G01X318068Y5251861D01*
G01X308480Y5218579D01*
G01X302678Y5184432D01*
G01X300736Y5149850D01*
G01X300736Y3600450D01*
G01X48514Y3600450D01*
G01X48514Y5422900D01*
G01X50405Y5458982D01*
G01X50725Y5461000D01*
G01X4269486Y5461000D01*
G01X4271239Y5449933D01*
G01X4276326Y5439949D01*
G01X4284249Y5432026D01*
G01X4294233Y5426939D01*
G01X4305300Y5425186D01*
G01X5448300Y5425186D01*
G01X5459367Y5426939D01*
G01X5469351Y5432026D01*
G01X5477274Y5439949D01*
G01X5482361Y5449933D01*
G01X5484114Y5461000D01*
G01X5484114Y5651500D01*
G01X5482361Y5662567D01*
G01X5477274Y5672551D01*
G01X5469351Y5680474D01*
G01X5459367Y5685561D01*
G01X5448300Y5687314D01*
G01X4305300Y5687314D01*
G01X4294233Y5685561D01*
G01X4284249Y5680474D01*
G01X4276326Y5672551D01*
G01X4271239Y5662567D01*
G01X4269486Y5651500D01*
G01X4269486Y5461000D01*
G01X4269486Y5461000D01*
G01X50725Y5461000D01*
G01X56057Y5494668D01*
G01X65409Y5529568D01*
G01X78357Y5563300D01*
G01X94760Y5595493D01*
G01X114439Y5625795D01*
G01X137177Y5653875D01*
G01X162725Y5679423D01*
G01X190805Y5702161D01*
G01X221107Y5721840D01*
G01X253300Y5738243D01*
G01X287032Y5751191D01*
G01X321932Y5760543D01*
G01X357618Y5766195D01*
G01X393700Y5768086D01*
G01X9791700Y5768086D01*
G01X9827782Y5766195D01*
G01X9863468Y5760543D01*
G01X9898368Y5751191D01*
G01X9932100Y5738243D01*
G01X9964293Y5721840D01*
G01X9994595Y5702161D01*
G01X10022675Y5679423D01*
G01X10048223Y5653875D01*
G01X10070961Y5625795D01*
G01X10090640Y5595493D01*
G01X10107043Y5563300D01*
G01X10119991Y5529568D01*
G01X10129343Y5494668D01*
G01X10134995Y5458982D01*
G01X10136886Y5422900D01*
G01X10136886Y4909808D01*
G01X10122717Y4920628D01*
G01X10106789Y4928635D01*
G01X10089653Y4933554D01*
G01X10071903Y4935212D01*
G01X10011903Y4935212D01*
G01X9993210Y4933371D01*
G01X9975236Y4927919D01*
G01X9958671Y4919065D01*
G01X9944152Y4907149D01*
G01X9932236Y4892630D01*
G01X9923382Y4876065D01*
G01X9917930Y4858091D01*
G01X9916089Y4839399D01*
G01X9917930Y4820706D01*
G01X9923382Y4802732D01*
G01X9932236Y4786167D01*
G01X9944152Y4771648D01*
G01X9958671Y4759732D01*
G01X9975236Y4750878D01*
G01X9993210Y4745426D01*
G01X10011903Y4743585D01*
G01X10071903Y4743585D01*
G01X10089653Y4745243D01*
G01X10106789Y4750162D01*
G01X10122717Y4758169D01*
G01X10136886Y4768989D01*
G01X10136886Y4044811D01*
G01X10122717Y4055631D01*
G01X10106789Y4063638D01*
G01X10089653Y4068557D01*
G01X10071903Y4070215D01*
G01X10011903Y4070215D01*
G01X9993210Y4068374D01*
G01X9975236Y4062922D01*
G01X9958671Y4054068D01*
G01X9944152Y4042152D01*
G01X9932236Y4027633D01*
G01X9923382Y4011068D01*
G01X9917930Y3993094D01*
G01X9916089Y3974402D01*
G01X9917930Y3955709D01*
G01X9923382Y3937735D01*
G01X9932236Y3921170D01*
G01X9944152Y3906651D01*
G01X9958671Y3894735D01*
G01X9975236Y3885881D01*
G01X9993210Y3880429D01*
G01X10011903Y3878588D01*
G01X10071903Y3878588D01*
G01X10089653Y3880246D01*
G01X10106789Y3885165D01*
G01X10122717Y3893172D01*
G01X10136886Y3903992D01*
G01X10136886Y3200400D01*
G01X10134995Y3164318D01*
G01X10129343Y3128632D01*
G01X10119991Y3093732D01*
G01X10107043Y3060000D01*
G01X10090640Y3027807D01*
G01X10070961Y2997505D01*
G01X10048223Y2969425D01*
G01X10022675Y2943877D01*
G01X9994595Y2921139D01*
G01X9964293Y2901460D01*
G01X9932100Y2885057D01*
G01X9898368Y2872109D01*
G01X9863468Y2862757D01*
G01X9827782Y2857105D01*
G01X9791700Y2855214D01*
G01X8376908Y2855214D01*
G01X8387728Y2869383D01*
G01X8395735Y2885311D01*
G01X8400654Y2902447D01*
G01X8402312Y2920197D01*
G01X8402312Y2980197D01*
G01X8400471Y2998890D01*
G01X8395019Y3016864D01*
G01X8386165Y3033429D01*
G01X8374249Y3047948D01*
G01X8359730Y3059864D01*
G01X8343165Y3068718D01*
G01X8325191Y3074170D01*
G01X8306499Y3076011D01*
G01X8287806Y3074170D01*
G01X8269832Y3068718D01*
G01X8253267Y3059864D01*
G01X8238748Y3047948D01*
G01X8226832Y3033429D01*
G01X8217978Y3016864D01*
G01X8212526Y2998890D01*
G01X8210685Y2980197D01*
G01X8210685Y2920197D01*
G01X8212343Y2902447D01*
G01X8217262Y2885311D01*
G01X8225269Y2869383D01*
G01X8236089Y2855214D01*
G01X7511911Y2855214D01*
G01X7522731Y2869383D01*
G01X7530738Y2885311D01*
G01X7535657Y2902447D01*
G01X7537315Y2920197D01*
G01X7537315Y2980197D01*
G01X7535474Y2998890D01*
G01X7530022Y3016864D01*
G01X7521168Y3033429D01*
G01X7509252Y3047948D01*
G01X7494733Y3059864D01*
G01X7478168Y3068718D01*
G01X7460194Y3074170D01*
G01X7441502Y3076011D01*
G01X7422809Y3074170D01*
G01X7404835Y3068718D01*
G01X7388270Y3059864D01*
G01X7373751Y3047948D01*
G01X7361835Y3033429D01*
G01X7352981Y3016864D01*
G01X7347529Y2998890D01*
G01X7345688Y2980197D01*
G01X7345688Y2920197D01*
G01X7347346Y2902447D01*
G01X7352265Y2885311D01*
G01X7360272Y2869383D01*
G01X7371092Y2855214D01*
G01X6406784Y2855214D01*
G01X6420386Y2867141D01*
G01X6431504Y2881412D01*
G01X6439742Y2897519D01*
G01X6444804Y2914887D01*
G01X6446512Y2932897D01*
G01X6446512Y2992897D01*
G01X6444671Y3011590D01*
G01X6439219Y3029564D01*
G01X6430365Y3046129D01*
G01X6418449Y3060648D01*
G01X6403930Y3072564D01*
G01X6387365Y3081418D01*
G01X6369391Y3086870D01*
G01X6350699Y3088711D01*
G01X6332006Y3086870D01*
G01X6314032Y3081418D01*
G01X6297467Y3072564D01*
G01X6282948Y3060648D01*
G01X6271032Y3046129D01*
G01X6262178Y3029564D01*
G01X6256726Y3011590D01*
G01X6254885Y2992897D01*
G01X6254885Y2932897D01*
G01X6256593Y2914887D01*
G01X6261655Y2897519D01*
G01X6269893Y2881412D01*
G01X6281011Y2867141D01*
G01X6294613Y2855214D01*
G01X5541787Y2855214D01*
G01X5555389Y2867141D01*
G01X5566507Y2881412D01*
G01X5574745Y2897519D01*
G01X5579807Y2914887D01*
G01X5581515Y2932897D01*
G01X5581515Y2992897D01*
G01X5579674Y3011590D01*
G01X5574222Y3029564D01*
G01X5565368Y3046129D01*
G01X5553452Y3060648D01*
G01X5538933Y3072564D01*
G01X5522368Y3081418D01*
G01X5504394Y3086870D01*
G01X5485702Y3088711D01*
G01X5467009Y3086870D01*
G01X5449035Y3081418D01*
G01X5432470Y3072564D01*
G01X5417951Y3060648D01*
G01X5406035Y3046129D01*
G01X5397181Y3029564D01*
G01X5391729Y3011590D01*
G01X5389888Y2992897D01*
G01X5389888Y2932897D01*
G01X5391596Y2914887D01*
G01X5396658Y2897519D01*
G01X5404896Y2881412D01*
G01X5416014Y2867141D01*
G01X5429616Y2855214D01*
G01X5008286Y2855214D01*
G01X5018995Y2869343D01*
G01X5026917Y2885203D01*
G01X5031781Y2902251D01*
G01X5033421Y2919904D01*
G01X5033421Y3109904D01*
G01X5031580Y3128596D01*
G01X5026128Y3146570D01*
G01X5017274Y3163135D01*
G01X5005358Y3177654D01*
G01X4990839Y3189570D01*
G01X4974274Y3198424D01*
G01X4956300Y3203876D01*
G01X4937608Y3205717D01*
G01X4918915Y3203876D01*
G01X4900941Y3198424D01*
G01X4884376Y3189570D01*
G01X4869857Y3177654D01*
G01X4857941Y3163135D01*
G01X4849087Y3146570D01*
G01X4843635Y3128596D01*
G01X4841794Y3109904D01*
G01X4841794Y2919904D01*
G01X4843434Y2902251D01*
G01X4848298Y2885203D01*
G01X4856220Y2869343D01*
G01X4866929Y2855214D01*
G01X3718271Y2855214D01*
G01X3728980Y2869343D01*
G01X3736902Y2885203D01*
G01X3741766Y2902251D01*
G01X3743406Y2919904D01*
G01X3743406Y3109904D01*
G01X3741565Y3128596D01*
G01X3736113Y3146570D01*
G01X3727259Y3163135D01*
G01X3715343Y3177654D01*
G01X3700824Y3189570D01*
G01X3684259Y3198424D01*
G01X3666285Y3203876D01*
G01X3647592Y3205717D01*
G01X3628900Y3203876D01*
G01X3610926Y3198424D01*
G01X3594361Y3189570D01*
G01X3579842Y3177654D01*
G01X3567926Y3163135D01*
G01X3559072Y3146570D01*
G01X3553620Y3128596D01*
G01X3551779Y3109904D01*
G01X3551779Y2919904D01*
G01X3553419Y2902251D01*
G01X3558283Y2885203D01*
G01X3566205Y2869343D01*
G01X3576914Y2855214D01*
G01X3154086Y2855214D01*
G01X3164795Y2869343D01*
G01X3172717Y2885203D01*
G01X3177581Y2902251D01*
G01X3179221Y2919904D01*
G01X3179221Y3109904D01*
G01X3177380Y3128596D01*
G01X3171928Y3146570D01*
G01X3163074Y3163135D01*
G01X3151158Y3177654D01*
G01X3136639Y3189570D01*
G01X3120074Y3198424D01*
G01X3102100Y3203876D01*
G01X3083408Y3205717D01*
G01X3064715Y3203876D01*
G01X3046741Y3198424D01*
G01X3030176Y3189570D01*
G01X3015657Y3177654D01*
G01X3003741Y3163135D01*
G01X2994887Y3146570D01*
G01X2989435Y3128596D01*
G01X2987594Y3109904D01*
G01X2987594Y2919904D01*
G01X2989234Y2902251D01*
G01X2994098Y2885203D01*
G01X3002020Y2869343D01*
G01X3012729Y2855214D01*
G37*
G54D10*
G01X3012729Y2855214D02*
G01X1864071Y2855214D01*
G03X1889206Y2919904I-70679J64690D01*
G01X1889206Y3109904D01*
G03X1697579Y3109904I-95814J0D01*
G01X1697579Y2919904D01*
G03X1722714Y2855214I95814J0D01*
G01X393700Y2855214D01*
G02X48514Y3200400I0J345186D01*
G01X48514Y5422900D01*
G02X393700Y5768086I345186J0D01*
G01X9791700Y5768086D01*
G02X10136886Y5422900I0J-345186D01*
G01X10136886Y4909808D01*
G03X10071903Y4935212I-64983J-70409D01*
G01X10011903Y4935212D01*
G03X10011903Y4743585I0J-95814D01*
G01X10071903Y4743585D01*
G03X10136886Y4768989I0J95814D01*
G01X10136886Y4044811D01*
G03X10071903Y4070215I-64983J-70409D01*
G01X10011903Y4070215D01*
G03X10011903Y3878588I0J-95814D01*
G01X10071903Y3878588D01*
G03X10136886Y3903992I0J95814D01*
G01X10136886Y3200400D01*
G02X9791700Y2855214I-345186J0D01*
G01X8376908Y2855214D01*
G03X8402312Y2920197I-70409J64983D01*
G01X8402312Y2980197D01*
G03X8210685Y2980197I-95814J0D01*
G01X8210685Y2920197D01*
G03X8236089Y2855214I95814J0D01*
G01X7511911Y2855214D01*
G03X7537315Y2920197I-70409J64983D01*
G01X7537315Y2980197D01*
G03X7345688Y2980197I-95814J0D01*
G01X7345688Y2920197D01*
G03X7371092Y2855214I95814J0D01*
G01X6406784Y2855214D01*
G03X6446512Y2932897I-56086J77683D01*
G01X6446512Y2992897D01*
G03X6254885Y2992897I-95814J0D01*
G01X6254885Y2932897D01*
G03X6294613Y2855214I95814J0D01*
G01X5541787Y2855214D01*
G03X5581515Y2932897I-56086J77683D01*
G01X5581515Y2992897D01*
G03X5389888Y2992897I-95814J0D01*
G01X5389888Y2932897D01*
G03X5429616Y2855214I95814J0D01*
G01X5008286Y2855214D01*
G03X5033421Y2919904I-70679J64690D01*
G01X5033421Y3109904D01*
G03X4841794Y3109904I-95814J0D01*
G01X4841794Y2919904D01*
G03X4866929Y2855214I95814J0D01*
G01X3718271Y2855214D01*
G03X3743406Y2919904I-70679J64690D01*
G01X3743406Y3109904D01*
G03X3551779Y3109904I-95814J0D01*
G01X3551779Y2919904D01*
G03X3576914Y2855214I95814J0D01*
G01X3154086Y2855214D01*
G03X3179221Y2919904I-70679J64690D01*
G01X3179221Y3109904D01*
G03X2987594Y3109904I-95814J0D01*
G01X2987594Y2919904D01*
G03X3012729Y2855214I95814J0D01*
G01X609600Y3291586D02*
G03X918464Y3600450I0J308864D01*
G01X918464Y5149850D01*
G03X609600Y5458714I-308864J0D01*
G03X300736Y5149850I0J-308864D01*
G01X300736Y3600450D01*
G03X609600Y3291586I308864J0D01*
G01X4371373Y4300220D02*
G03X4357164Y4334524I-48514J0D01*
G01X4353593Y4338095D01*
G01X4353593Y4435375D01*
G03X4366220Y4433703I12627J46842D01*
G01X4376910Y4433703D01*
G03X4465663Y4432202I45210J48514D01*
G03X4476396Y4520317I-43544J50015D01*
G03X4465663Y4608432I-54276J38100D01*
G03X4376910Y4606931I-43544J-50015D01*
G01X4366220Y4606931D01*
G03X4331915Y4592721I0J-48514D01*
G01X4328344Y4589151D01*
G01X4306206Y4589151D01*
G03X4271901Y4574941I0J-48514D01*
G01X4230135Y4533174D01*
G03X4215925Y4498870I34305J-34305D01*
G01X4215925Y4338095D01*
G01X4212354Y4334524D01*
G03X4198145Y4300220I34305J-34305D01*
G01X4198145Y4289530D01*
G03X4196644Y4200776I48514J-45210D01*
G03X4284759Y4190043I50015J43544D01*
G03X4372874Y4200776I38100J54276D01*
G03X4371373Y4289530I-50015J43544D01*
G01X4371373Y4300220D01*
G01X4269486Y5461000D02*
G03X4305300Y5425186I35814J0D01*
G01X5448300Y5425186D01*
G03X5484114Y5461000I0J35814D01*
G01X5484114Y5651500D01*
G03X5448300Y5687314I-35814J0D01*
G01X4305300Y5687314D01*
G03X4269486Y5651500I0J-35814D01*
G01X4269486Y5461000D01*
G01X5699533Y3322541D02*
G03X5576515Y3378199I-70321J8352D01*
G01X5576515Y3427912D01*
G03X5394888Y3427912I-90814J0D01*
G01X5394888Y3337912D01*
G03X5566901Y3297245I90814J0D01*
G03X5699533Y3322541I62311J33648D01*
G01X5873922Y3604514D02*
G03X5756482Y3574537I-52062J-41075D01*
G03X5857452Y3507486I65379J-11098D01*
G01X6306937Y3507486D01*
G03X6259885Y3427912I43762J-79574D01*
G01X6259885Y3378227D01*
G03X6136894Y3322536I-52671J-47335D01*
G03X6269511Y3297220I70320J8357D01*
G03X6441512Y3337912I81187J40692D01*
G01X6441512Y3427912D01*
G03X6431471Y3469419I-90814J0D01*
G01X6441832Y3459059D01*
G03X6476136Y3444850I34305J34305D01*
G01X6533390Y3444850D01*
G03X6644914Y3493364I45210J48514D01*
G03X6533390Y3541878I-66314J0D01*
G01X6496232Y3541878D01*
G01X6447805Y3590305D01*
G03X6413500Y3604514I-34305J-34305D01*
G01X5873922Y3604514D01*
G01X7711012Y3760271D02*
G03X7780908Y3814989I4576J66156D01*
G03X7835626Y3884885I-11438J65320D01*
G03X7771806Y3946582I-66156J-4576D01*
G01X7764247Y3954141D01*
G03X7729942Y3968350I-34305J-34305D01*
G01X7724892Y3968350D01*
G01X7709238Y3984005D01*
G03X7674934Y3998214I-34305J-34305D01*
G01X7411495Y3998214D01*
G01X7307695Y4102014D01*
G03X7273391Y4116223I-34305J-34305D01*
G01X5986102Y4116223D01*
G01X5986102Y4118295D01*
G03X5971892Y4152600I-48514J0D01*
G01X5964333Y4160159D01*
G03X5897842Y4224136I-66273J-2336D01*
G03X5831774Y4159722I218J-66314D01*
G03X5785946Y4087557I19886J-63262D01*
G03X5849323Y4030187I65714J8903D01*
G01X5856882Y4022628D01*
G03X5891187Y4008419I34305J34305D01*
G01X5896237Y4008419D01*
G01X5911891Y3992765D01*
G03X5946196Y3978555I34305J34305D01*
G01X7236462Y3978555D01*
G01X7340262Y3874755D01*
G03X7374566Y3860546I34305J34305D01*
G01X7627849Y3860546D01*
G03X7641756Y3831650I48212J5409D01*
G01X7649315Y3824091D01*
G03X7711012Y3760271I66273J2336D01*
G01X7532315Y3415212D02*
G03X7350688Y3415212I-90814J0D01*
G01X7350688Y3325212D01*
G03X7522701Y3284545I90814J0D01*
G03X7655333Y3309841I62311J33648D01*
G03X7532315Y3365499I-70321J8352D01*
G01X7532315Y3415212D01*
G01X8092694Y3309836D02*
G03X8225311Y3284520I70320J8357D01*
G03X8397312Y3325212I81187J40692D01*
G01X8397312Y3415212D01*
G03X8215685Y3415212I-90814J0D01*
G01X8215685Y3365527D01*
G03X8092694Y3309836I-52671J-47335D01*
G01X9666888Y4930212D02*
G01X9576888Y4930212D01*
G03X9576888Y4748585I0J-90814D01*
G01X9626573Y4748585D01*
G03X9682264Y4625594I47335J-52671D01*
G03X9707580Y4758211I-8357J70320D01*
G03X9666888Y4930212I-40692J81187D01*
G01X9576888Y4065215D02*
G03X9576888Y3883588I0J-90814D01*
G01X9666888Y3883588D01*
G03X9707555Y4055601I0J90814D01*
G03X9682259Y4188233I-33648J62311D01*
G03X9626601Y4065215I-8352J-70321D01*
G01X9576888Y4065215D01*
G54D11*
G01X1733647Y3014904D02*
G01X1707739Y3014904D01*
G01X1853138Y3014904D02*
G01X1879046Y3014904D01*
G01X1793392Y3169649D02*
G01X1793392Y3195557D01*
G01X3023662Y3014904D02*
G01X2997754Y3014904D01*
G01X3143153Y3014904D02*
G01X3169061Y3014904D01*
G01X3083408Y3169649D02*
G01X3083408Y3195557D01*
G01X3587847Y3014904D02*
G01X3561939Y3014904D01*
G01X3707338Y3014904D02*
G01X3733246Y3014904D01*
G01X3647592Y3169649D02*
G01X3647592Y3195557D01*
G01X4877862Y3014904D02*
G01X4851954Y3014904D01*
G01X4997353Y3014904D02*
G01X5023261Y3014904D01*
G01X4937608Y3169649D02*
G01X4937608Y3195557D01*
G01X5425956Y2962897D02*
G01X5400048Y2962897D01*
G01X5545447Y2962897D02*
G01X5571355Y2962897D01*
G01X5485702Y3052643D02*
G01X5485702Y3078551D01*
G01X5430956Y3382912D02*
G01X5405048Y3382912D01*
G01X5540447Y3382912D02*
G01X5566355Y3382912D01*
G01X5485702Y3482658D02*
G01X5485702Y3508566D01*
G01X5485702Y3283166D02*
G01X5485702Y3257258D01*
G01X6295953Y3382912D02*
G01X6270045Y3382912D01*
G01X6405444Y3382912D02*
G01X6431352Y3382912D01*
G01X6350699Y3283166D02*
G01X6350699Y3257258D01*
G01X6290953Y2962897D02*
G01X6265045Y2962897D01*
G01X6410444Y2962897D02*
G01X6436352Y2962897D01*
G01X6350699Y3052643D02*
G01X6350699Y3078551D01*
G01X7381756Y2950197D02*
G01X7355848Y2950197D01*
G01X7501247Y2950197D02*
G01X7527155Y2950197D01*
G01X7441502Y3039943D02*
G01X7441502Y3065851D01*
G01X7386756Y3370212D02*
G01X7360848Y3370212D01*
G01X7496247Y3370212D02*
G01X7522155Y3370212D01*
G01X7441502Y3469958D02*
G01X7441502Y3495866D01*
G01X7441502Y3270466D02*
G01X7441502Y3244558D01*
G01X8246753Y2950197D02*
G01X8220845Y2950197D01*
G01X8366244Y2950197D02*
G01X8392152Y2950197D01*
G01X8306499Y3039943D02*
G01X8306499Y3065851D01*
G01X8251753Y3370212D02*
G01X8225845Y3370212D01*
G01X8361244Y3370212D02*
G01X8387152Y3370212D01*
G01X8306499Y3469958D02*
G01X8306499Y3495866D01*
G01X8306499Y3270466D02*
G01X8306499Y3244558D01*
G01X9621888Y4784653D02*
G01X9621888Y4758745D01*
G01X9621888Y4894144D02*
G01X9621888Y4920052D01*
G01X9522143Y4839399D02*
G01X9496235Y4839399D01*
G01X9721634Y4839399D02*
G01X9747542Y4839399D01*
G01X9621888Y3919656D02*
G01X9621888Y3893748D01*
G01X9621888Y4029147D02*
G01X9621888Y4055055D01*
G01X9522143Y3974402D02*
G01X9496235Y3974402D01*
G01X9721634Y3974402D02*
G01X9747542Y3974402D01*
G01X10041903Y3914656D02*
G01X10041903Y3888748D01*
G01X10041903Y4034147D02*
G01X10041903Y4060055D01*
G01X9952157Y3974402D02*
G01X9926249Y3974402D01*
G01X10041903Y4779653D02*
G01X10041903Y4753745D01*
G01X10041903Y4899144D02*
G01X10041903Y4925052D01*
G01X9952157Y4839399D02*
G01X9926249Y4839399D01*
G04 Copper End*

G04 Text Start*
G36*
G01X4305300Y5461000D02*
G01X4305300Y5495636D01*
G01X4324350Y5495636D01*
G01X4324350Y5491596D01*
G01X4382077Y5491596D01*
G01X4382077Y5495636D01*
G01X4373996Y5495636D01*
G01X4363316Y5495925D01*
G01X4361079Y5496502D01*
G01X4359564Y5497657D01*
G01X4358698Y5512377D01*
G01X4358528Y5536623D01*
G01X4412096Y5536623D01*
G01X4412096Y5533159D01*
G01X4472132Y5533159D01*
G01X4472132Y5529118D01*
G01X4471843Y5524211D01*
G01X4471266Y5520171D01*
G01X4470689Y5517573D01*
G01X4469823Y5514109D01*
G01X4468668Y5510934D01*
G01X4467225Y5508048D01*
G01X4465782Y5506027D01*
G01X4464916Y5504584D01*
G01X4463184Y5502564D01*
G01X4460875Y5500832D01*
G01X4459432Y5499677D01*
G01X4457411Y5498523D01*
G01X4454814Y5497368D01*
G01X4451639Y5496502D01*
G01X4448752Y5495925D01*
G01X4445289Y5495636D01*
G01X4441825Y5495925D01*
G01X4439804Y5496214D01*
G01X4436629Y5496791D01*
G01X4433166Y5497946D01*
G01X4430279Y5499389D01*
G01X4428259Y5500832D01*
G01X4426816Y5501986D01*
G01X4422486Y5506316D01*
G01X4421332Y5507759D01*
G01X4420177Y5509779D01*
G01X4418734Y5512954D01*
G01X4417724Y5514181D01*
G01X4416425Y5514398D01*
G01X4415343Y5513965D01*
G01X4414982Y5513243D01*
G01X4415559Y5510646D01*
G01X4417002Y5507471D01*
G01X4418734Y5504873D01*
G01X4419889Y5502852D01*
G01X4421043Y5501409D01*
G01X4426816Y5495636D01*
G01X4428836Y5494193D01*
G01X4431434Y5492750D01*
G01X4434032Y5491596D01*
G01X4437207Y5490729D01*
G01X4437207Y5490729D01*
G01X4440093Y5490152D01*
G01X4445866Y5489864D01*
G01X4451061Y5490152D01*
G01X4453659Y5490729D01*
G01X4457700Y5491596D01*
G01X4460875Y5492750D01*
G01X4463473Y5493904D01*
G01X4465782Y5495059D01*
G01X4467514Y5496214D01*
G01X4468957Y5497079D01*
G01X4470400Y5498234D01*
G01X4474729Y5502564D01*
G01X4476461Y5504584D01*
G01X4477904Y5506604D01*
G01X4479059Y5508625D01*
G01X4480214Y5511223D01*
G01X4481368Y5514109D01*
G01X4482234Y5516707D01*
G01X4483389Y5521902D01*
G01X4483966Y5527098D01*
G01X4484254Y5531716D01*
G01X4484128Y5533736D01*
G01X4505036Y5533736D01*
G01X4505325Y5528829D01*
G01X4505614Y5526809D01*
G01X4505902Y5524211D01*
G01X4506479Y5521902D01*
G01X4507057Y5519304D01*
G01X4507923Y5516418D01*
G01X4508789Y5514109D01*
G01X4509654Y5512089D01*
G01X4510809Y5510068D01*
G01X4512252Y5507759D01*
G01X4513407Y5505739D01*
G01X4514561Y5504296D01*
G01X4516293Y5502275D01*
G01X4518602Y5499677D01*
G01X4521489Y5497368D01*
G01X4524375Y5495348D01*
G01X4526684Y5493904D01*
G01X4529282Y5492750D01*
G01X4532168Y5491596D01*
G01X4535343Y5490729D01*
G01X4535343Y5490729D01*
G01X4538229Y5490152D01*
G01X4544002Y5489864D01*
G01X4550064Y5490152D01*
G01X4553239Y5491018D01*
G01X4556702Y5492173D01*
G01X4559589Y5493327D01*
G01X4561898Y5494482D01*
G01X4564207Y5495925D01*
G01X4566227Y5497368D01*
G01X4567671Y5498523D01*
G01X4572000Y5502852D01*
G01X4573154Y5504296D01*
G01X4576041Y5508336D01*
G01X4577196Y5510357D01*
G01X4578350Y5512954D01*
G01X4579504Y5515841D01*
G01X4580659Y5519593D01*
G01X4581525Y5522479D01*
G01X4582102Y5527098D01*
G01X4582391Y5530850D01*
G01X4582102Y5536334D01*
G01X4581525Y5540375D01*
G01X4580948Y5543261D01*
G01X4580161Y5546148D01*
G01X4595379Y5546148D01*
G01X4595379Y5543839D01*
G01X4596173Y5542756D01*
G01X4597977Y5542396D01*
G01X4601729Y5542107D01*
G01X4603750Y5541241D01*
G01X4605193Y5540086D01*
G01X4606348Y5538354D01*
G01X4606925Y5536334D01*
G01X4607214Y5516418D01*
G01X4607430Y5502275D01*
G01X4608079Y5497946D01*
G01X4611254Y5498523D01*
G01X4615007Y5498234D01*
G01X4617027Y5497368D01*
G01X4619048Y5495925D01*
G01X4621646Y5494193D01*
G01X4624243Y5492750D01*
G01X4626841Y5491596D01*
G01X4630016Y5490729D01*
G01X4630016Y5490729D01*
G01X4632902Y5490152D01*
G01X4638675Y5489864D01*
G01X4644736Y5490152D01*
G01X4647911Y5491018D01*
G01X4651664Y5492173D01*
G01X4654261Y5493327D01*
G01X4656571Y5494482D01*
G01X4659457Y5496214D01*
G01X4661766Y5497946D01*
G01X4666096Y5502275D01*
G01X4667250Y5503718D01*
G01X4668693Y5505739D01*
G01X4670136Y5508048D01*
G01X4671291Y5510068D01*
G01X4672446Y5512377D01*
G01X4674754Y5517573D01*
G01X4676486Y5522191D01*
G01X4677352Y5524789D01*
G01X4678218Y5528252D01*
G01X4679084Y5531139D01*
G01X4680239Y5537489D01*
G01X4680816Y5542107D01*
G01X4681104Y5552209D01*
G01X4680816Y5562311D01*
G01X4680527Y5564332D01*
G01X4680239Y5566929D01*
G01X4679661Y5570971D01*
G01X4678796Y5575589D01*
G01X4677929Y5578475D01*
G01X4677609Y5579918D01*
G01X4803486Y5579918D01*
G01X4803486Y5537489D01*
G01X4803775Y5494193D01*
G01X4804352Y5490729D01*
G01X4805218Y5486689D01*
G01X4806373Y5483514D01*
G01X4807816Y5480339D01*
G01X4809259Y5478318D01*
G01X4810125Y5476875D01*
G01X4811279Y5475432D01*
G01X4814166Y5472546D01*
G01X4815609Y5471391D01*
G01X4817629Y5469948D01*
G01X4819939Y5468504D01*
G01X4822248Y5467350D01*
G01X4825134Y5466196D01*
G01X4827443Y5465329D01*
G01X4827443Y5465329D01*
G01X4833216Y5464175D01*
G01X4839854Y5463886D01*
G01X4846782Y5464175D01*
G01X4848802Y5464752D01*
G01X4851400Y5465329D01*
G01X4854575Y5466484D01*
G01X4856884Y5467927D01*
G01X4858616Y5469082D01*
G01X4860059Y5470525D01*
G01X4861214Y5472257D01*
G01X4861791Y5475432D01*
G01X4861214Y5479184D01*
G01X4860059Y5481204D01*
G01X4858616Y5482359D01*
G01X4855441Y5482936D01*
G01X4851689Y5482071D01*
G01X4849957Y5480339D01*
G01X4849091Y5478607D01*
G01X4847936Y5476009D01*
G01X4846493Y5472834D01*
G01X4844473Y5470814D01*
G01X4842452Y5469948D01*
G01X4838123Y5469659D01*
G01X4833793Y5469948D01*
G01X4830329Y5470525D01*
G01X4826577Y5471391D01*
G01X4823979Y5472546D01*
G01X4821959Y5473700D01*
G01X4820516Y5474854D01*
G01X4819073Y5476298D01*
G01X4817918Y5477741D01*
G01X4816764Y5479761D01*
G01X4815609Y5482359D01*
G01X4814743Y5485246D01*
G01X4814166Y5487843D01*
G01X4814109Y5495636D01*
G01X4897004Y5495636D01*
G01X4897004Y5491596D01*
G01X4952423Y5491596D01*
G01X4952423Y5495636D01*
G01X4944918Y5495636D01*
G01X4934816Y5495925D01*
G01X4932579Y5496502D01*
G01X4931064Y5497657D01*
G01X4930198Y5506893D01*
G01X4930117Y5513821D01*
G01X4987059Y5513821D01*
G01X4987348Y5511511D01*
G01X4988214Y5508336D01*
G01X4989368Y5505161D01*
G01X4991389Y5501121D01*
G01X4993698Y5498234D01*
G01X4994852Y5497079D01*
G01X4996296Y5495925D01*
G01X4997739Y5494482D01*
G01X4999471Y5493327D01*
G01X5002068Y5492173D01*
G01X5004666Y5491307D01*
G01X5004666Y5491307D01*
G01X5008707Y5490729D01*
G01X5011304Y5490441D01*
G01X5014479Y5490729D01*
G01X5019098Y5491884D01*
G01X5021407Y5492750D01*
G01X5023427Y5493616D01*
G01X5025159Y5494771D01*
G01X5026025Y5495636D01*
G01X5087504Y5495636D01*
G01X5087504Y5491596D01*
G01X5142923Y5491596D01*
G01X5142923Y5495636D01*
G01X5168900Y5495636D01*
G01X5168900Y5491596D01*
G01X5200073Y5491596D01*
G01X5200073Y5495636D01*
G01X5198341Y5495636D01*
G01X5194589Y5495925D01*
G01X5191702Y5496791D01*
G01X5190259Y5497946D01*
G01X5189682Y5525943D01*
G01X5189971Y5554229D01*
G01X5190548Y5557693D01*
G01X5191414Y5561446D01*
G01X5192857Y5564043D01*
G01X5195166Y5566641D01*
G01X5198341Y5568373D01*
G01X5200939Y5569239D01*
G01X5203825Y5569527D01*
G01X5206711Y5569239D01*
G01X5209598Y5568661D01*
G01X5212773Y5567796D01*
G01X5215082Y5566929D01*
G01X5217102Y5566064D01*
G01X5219411Y5564621D01*
G01X5222298Y5562600D01*
G01X5224607Y5560868D01*
G01X5227493Y5557982D01*
G01X5230379Y5554518D01*
G01X5231029Y5547591D01*
G01X5231246Y5527964D01*
G01X5230957Y5499966D01*
G01X5229802Y5497368D01*
G01X5227782Y5496214D01*
G01X5223741Y5495636D01*
G01X5223741Y5495636D01*
G01X5220854Y5495636D01*
G01X5220854Y5491596D01*
G01X5252027Y5491596D01*
G01X5252027Y5495636D01*
G01X5249429Y5495636D01*
G01X5245100Y5496214D01*
G01X5243585Y5497007D01*
G01X5242502Y5498234D01*
G01X5241853Y5512666D01*
G01X5241836Y5515841D01*
G01X5272232Y5515841D01*
G01X5272521Y5512666D01*
G01X5273098Y5509202D01*
G01X5273964Y5506027D01*
G01X5275118Y5503429D01*
G01X5276561Y5501121D01*
G01X5278293Y5499100D01*
G01X5281179Y5496214D01*
G01X5282911Y5495059D01*
G01X5285221Y5493904D01*
G01X5287818Y5492750D01*
G01X5290704Y5491884D01*
G01X5293302Y5491307D01*
G01X5297921Y5490729D01*
G01X5302250Y5490441D01*
G01X5306579Y5490729D01*
G01X5311198Y5491307D01*
G01X5313796Y5491884D01*
G01X5316682Y5492750D01*
G01X5319857Y5493616D01*
G01X5322743Y5494193D01*
G01X5325918Y5494193D01*
G01X5329382Y5493327D01*
G01X5329382Y5493327D01*
G01X5334577Y5491018D01*
G01X5335732Y5490441D01*
G01X5335732Y5493327D01*
G01X5335910Y5495636D01*
G01X5357091Y5495636D01*
G01X5357091Y5491596D01*
G01X5388841Y5491596D01*
G01X5388841Y5493327D01*
G01X5388264Y5495348D01*
G01X5385666Y5495925D01*
G01X5382491Y5497368D01*
G01X5381697Y5498811D01*
G01X5381625Y5500832D01*
G01X5382491Y5504007D01*
G01X5384800Y5508625D01*
G01X5387109Y5513821D01*
G01X5389418Y5518439D01*
G01X5391150Y5522479D01*
G01X5393459Y5527098D01*
G01X5395191Y5531139D01*
G01X5397500Y5535757D01*
G01X5399232Y5539798D01*
G01X5401541Y5544416D01*
G01X5403273Y5548457D01*
G01X5405582Y5553075D01*
G01X5408179Y5559136D01*
G01X5408613Y5559930D01*
G01X5409334Y5560002D01*
G01X5410777Y5559136D01*
G01X5412221Y5557116D01*
G01X5416261Y5551343D01*
G01X5420591Y5545282D01*
G01X5421168Y5522768D01*
G01X5420591Y5499389D01*
G01X5419436Y5497368D01*
G01X5417704Y5496214D01*
G01X5413375Y5495636D01*
G01X5413375Y5495636D01*
G01X5410200Y5495636D01*
G01X5410200Y5491596D01*
G01X5444259Y5491596D01*
G01X5444259Y5495636D01*
G01X5441373Y5495636D01*
G01X5436466Y5496214D01*
G01X5434806Y5496935D01*
G01X5433868Y5497946D01*
G01X5433002Y5499966D01*
G01X5432714Y5554229D01*
G01X5433291Y5609648D01*
G01X5435023Y5612823D01*
G01X5436827Y5613689D01*
G01X5439929Y5613977D01*
G01X5442816Y5614194D01*
G01X5443971Y5614843D01*
G01X5443971Y5617152D01*
G01X5443682Y5618596D01*
G01X5410200Y5618596D01*
G01X5410200Y5613977D01*
G01X5413086Y5613977D01*
G01X5416839Y5613689D01*
G01X5418571Y5613111D01*
G01X5420302Y5611379D01*
G01X5420952Y5603659D01*
G01X5421168Y5583382D01*
G01X5420879Y5555961D01*
G01X5420447Y5555528D01*
G01X5419725Y5555961D01*
G01X5417993Y5558271D01*
G01X5409334Y5570393D01*
G01X5405293Y5576166D01*
G01X5396634Y5588289D01*
G01X5392593Y5594061D01*
G01X5389707Y5598102D01*
G01X5385666Y5603875D01*
G01X5384223Y5606184D01*
G01X5383646Y5608204D01*
G01X5383934Y5610802D01*
G01X5384511Y5612101D01*
G01X5385666Y5613111D01*
G01X5387542Y5613761D01*
G01X5390284Y5613977D01*
G01X5393459Y5613977D01*
G01X5393459Y5618596D01*
G01X5361709Y5618596D01*
G01X5361709Y5613977D01*
G01X5363729Y5613977D01*
G01X5366904Y5613400D01*
G01X5369502Y5612246D01*
G01X5371523Y5611091D01*
G01X5373543Y5609648D01*
G01X5375564Y5607916D01*
G01X5377007Y5606473D01*
G01X5378739Y5604452D01*
G01X5380759Y5601566D01*
G01X5382491Y5599257D01*
G01X5385377Y5595216D01*
G01X5386532Y5593773D01*
G01X5387975Y5591752D01*
G01X5389996Y5588866D01*
G01X5391727Y5586557D01*
G01X5394614Y5582516D01*
G01X5395768Y5581073D01*
G01X5397211Y5579052D01*
G01X5399232Y5576166D01*
G01X5400964Y5573857D01*
G01X5401252Y5572125D01*
G01X5400675Y5570104D01*
G01X5399809Y5568084D01*
G01X5397500Y5563466D01*
G01X5395768Y5559425D01*
G01X5393459Y5554807D01*
G01X5391727Y5550766D01*
G01X5389418Y5546148D01*
G01X5387686Y5542107D01*
G01X5385377Y5537489D01*
G01X5383068Y5532293D01*
G01X5380759Y5527675D01*
G01X5379027Y5523634D01*
G01X5376718Y5519016D01*
G01X5374986Y5514975D01*
G01X5372677Y5510357D01*
G01X5370946Y5506316D01*
G01X5369791Y5504007D01*
G01X5368348Y5501409D01*
G01X5366904Y5499389D01*
G01X5365461Y5497946D01*
G01X5363152Y5496502D01*
G01X5359400Y5495636D01*
G01X5357091Y5495636D01*
G01X5335910Y5495636D01*
G01X5336021Y5497079D01*
G01X5337175Y5510934D01*
G01X5337464Y5514109D01*
G01X5337175Y5517284D01*
G01X5336021Y5518439D01*
G01X5334000Y5518439D01*
G01X5333062Y5517717D01*
G01X5332557Y5516129D01*
G01X5331691Y5512954D01*
G01X5330536Y5510357D01*
G01X5329382Y5508048D01*
G01X5327939Y5505739D01*
G01X5326496Y5503718D01*
G01X5325341Y5502275D01*
G01X5323321Y5500543D01*
G01X5321300Y5499100D01*
G01X5318991Y5497946D01*
G01X5316104Y5496791D01*
G01X5313218Y5495925D01*
G01X5310621Y5495348D01*
G01X5303982Y5495059D01*
G01X5297343Y5495348D01*
G01X5295323Y5495636D01*
G01X5292436Y5496214D01*
G01X5289261Y5497368D01*
G01X5286664Y5498811D01*
G01X5284643Y5500254D01*
G01X5283200Y5501986D01*
G01X5282046Y5504007D01*
G01X5281468Y5506027D01*
G01X5281179Y5508048D01*
G01X5281179Y5510357D01*
G01X5281757Y5513243D01*
G01X5282623Y5516129D01*
G01X5284066Y5518150D01*
G01X5287529Y5521614D01*
G01X5290127Y5523346D01*
G01X5292725Y5524500D01*
G01X5298498Y5526809D01*
G01X5301096Y5527964D01*
G01X5303404Y5528829D01*
G01X5305425Y5529696D01*
G01X5307734Y5530561D01*
G01X5310332Y5531427D01*
G01X5317259Y5534025D01*
G01X5319279Y5534891D01*
G01X5324475Y5537200D01*
G01X5326496Y5538354D01*
G01X5328227Y5539798D01*
G01X5331114Y5542684D01*
G01X5332268Y5544127D01*
G01X5333134Y5545859D01*
G01X5334000Y5548168D01*
G01X5334577Y5551632D01*
G01X5334289Y5555961D01*
G01X5333423Y5560002D01*
G01X5332268Y5562889D01*
G01X5330825Y5565198D01*
G01X5329093Y5567218D01*
G01X5327650Y5568661D01*
G01X5325629Y5570393D01*
G01X5323321Y5571836D01*
G01X5321011Y5572991D01*
G01X5318125Y5574146D01*
G01X5315239Y5575011D01*
G01X5312929Y5575589D01*
G01X5306579Y5575877D01*
G01X5299652Y5575589D01*
G01X5293879Y5574434D01*
G01X5290704Y5573568D01*
G01X5288107Y5572702D01*
G01X5285509Y5572414D01*
G01X5282911Y5572702D01*
G01X5280602Y5573568D01*
G01X5278582Y5575011D01*
G01X5278077Y5575516D01*
G01X5277716Y5575300D01*
G01X5277139Y5573857D01*
G01X5275984Y5564621D01*
G01X5275696Y5562600D01*
G01X5275407Y5559425D01*
G01X5274829Y5554807D01*
G01X5274829Y5552714D01*
G01X5275407Y5551632D01*
G01X5277716Y5551054D01*
G01X5278871Y5551343D01*
G01X5279448Y5552209D01*
G01X5280314Y5554229D01*
G01X5282623Y5558848D01*
G01X5283777Y5560579D01*
G01X5286086Y5563466D01*
G01X5288107Y5565486D01*
G01X5290993Y5567507D01*
G01X5293302Y5568950D01*
G01X5295900Y5570104D01*
G01X5298498Y5570971D01*
G01X5302539Y5571548D01*
G01X5304848Y5571836D01*
G01X5307157Y5571548D01*
G01X5309177Y5571259D01*
G01X5311775Y5570971D01*
G01X5316393Y5569816D01*
G01X5318414Y5568950D01*
G01X5320434Y5567796D01*
G01X5323032Y5565775D01*
G01X5324764Y5562889D01*
G01X5325629Y5560579D01*
G01X5325918Y5557693D01*
G01X5325629Y5554807D01*
G01X5325052Y5552209D01*
G01X5323898Y5549323D01*
G01X5322454Y5547302D01*
G01X5320723Y5545859D01*
G01X5318702Y5544704D01*
G01X5316393Y5543839D01*
G01X5313507Y5542973D01*
G01X5310621Y5541818D01*
G01X5307157Y5540664D01*
G01X5303404Y5539509D01*
G01X5299941Y5538354D01*
G01X5297054Y5537200D01*
G01X5294746Y5536334D01*
G01X5292725Y5535468D01*
G01X5287529Y5533159D01*
G01X5285221Y5532004D01*
G01X5283200Y5530850D01*
G01X5281179Y5529407D01*
G01X5279159Y5527675D01*
G01X5276273Y5524789D01*
G01X5274829Y5522768D01*
G01X5273675Y5520459D01*
G01X5272809Y5518150D01*
G01X5272232Y5515841D01*
G01X5241836Y5515841D01*
G01X5241636Y5553075D01*
G01X5241925Y5609071D01*
G01X5242502Y5611307D01*
G01X5243657Y5612823D01*
G01X5245677Y5613689D01*
G01X5248852Y5613977D01*
G01X5252604Y5613977D01*
G01X5252604Y5618596D01*
G01X5248275Y5618596D01*
G01X5242502Y5618884D01*
G01X5239616Y5619750D01*
G01X5237307Y5620904D01*
G01X5235575Y5622059D01*
G01X5234132Y5623214D01*
G01X5232400Y5624079D01*
G01X5231246Y5624368D01*
G01X5231246Y5562023D01*
G01X5230091Y5562600D01*
G01X5227204Y5565486D01*
G01X5225473Y5566929D01*
G01X5223452Y5568950D01*
G01X5220566Y5570971D01*
G01X5218257Y5572414D01*
G01X5216236Y5573279D01*
G01X5213927Y5574146D01*
G01X5211041Y5575011D01*
G01X5208443Y5575589D01*
G01X5203825Y5575877D01*
G01X5198052Y5575589D01*
G01X5194011Y5574723D01*
G01X5191125Y5573568D01*
G01X5189104Y5572702D01*
G01X5187373Y5571548D01*
G01X5183909Y5568084D01*
G01X5182177Y5565198D01*
G01X5181023Y5562600D01*
G01X5180157Y5559425D01*
G01X5179579Y5556539D01*
G01X5179291Y5529407D01*
G01X5179002Y5500543D01*
G01X5178569Y5498451D01*
G01X5177848Y5497368D01*
G01X5175827Y5496214D01*
G01X5171786Y5495636D01*
G01X5168900Y5495636D01*
G01X5142923Y5495636D01*
G01X5135418Y5495636D01*
G01X5125316Y5495925D01*
G01X5123079Y5496502D01*
G01X5121564Y5497657D01*
G01X5120698Y5506893D01*
G01X5120409Y5531716D01*
G01X5120986Y5565775D01*
G01X5122718Y5568373D01*
G01X5123945Y5569239D01*
G01X5125316Y5569527D01*
G01X5127625Y5569816D01*
G01X5135418Y5570104D01*
G01X5140686Y5570321D01*
G01X5142634Y5570971D01*
G01X5142634Y5573279D01*
G01X5142346Y5574723D01*
G01X5135996Y5574723D01*
G01X5128779Y5575011D01*
G01X5126759Y5575300D01*
G01X5124161Y5575589D01*
G01X5121852Y5576166D01*
G01X5119254Y5576743D01*
G01X5116079Y5577609D01*
G01X5113771Y5578764D01*
G01X5111461Y5579629D01*
G01X5110018Y5579918D01*
G01X5110018Y5540952D01*
G01X5109729Y5499966D01*
G01X5108575Y5497368D01*
G01X5106554Y5496214D01*
G01X5096452Y5495636D01*
G01X5096452Y5495636D01*
G01X5087504Y5495636D01*
G01X5026025Y5495636D01*
G01X5028046Y5497657D01*
G01X5029489Y5499677D01*
G01X5030643Y5501986D01*
G01X5031509Y5504296D01*
G01X5032375Y5507471D01*
G01X5032952Y5510357D01*
G01X5033241Y5540664D01*
G01X5033241Y5570104D01*
G01X5055754Y5570104D01*
G01X5055754Y5574723D01*
G01X5050848Y5574723D01*
G01X5044209Y5575300D01*
G01X5041034Y5576454D01*
G01X5038725Y5577609D01*
G01X5036704Y5578764D01*
G01X5034396Y5580784D01*
G01X5032664Y5583093D01*
G01X5031509Y5584825D01*
G01X5030643Y5586846D01*
G01X5029777Y5589154D01*
G01X5028911Y5592329D01*
G01X5028334Y5595216D01*
G01X5027757Y5599257D01*
G01X5027468Y5601854D01*
G01X5027468Y5603586D01*
G01X5022850Y5603586D01*
G01X5022850Y5574723D01*
G01X4993409Y5574723D01*
G01X4993409Y5570104D01*
G01X5022850Y5570104D01*
G01X5022850Y5540375D01*
G01X5022561Y5509779D01*
G01X5022273Y5507759D01*
G01X5021696Y5505450D01*
G01X5020829Y5503141D01*
G01X5019675Y5501409D01*
G01X5018232Y5499966D01*
G01X5016211Y5498523D01*
G01X5013902Y5497657D01*
G01X5008996Y5497368D01*
G01X5002934Y5497946D01*
G01X5000048Y5499100D01*
G01X4997739Y5500543D01*
G01X4995718Y5502275D01*
G01X4994564Y5503718D01*
G01X4993409Y5505450D01*
G01X4992254Y5507759D01*
G01X4991389Y5510068D01*
G01X4990523Y5513243D01*
G01X4989946Y5515264D01*
G01X4988502Y5514975D01*
G01X4987420Y5514542D01*
G01X4987059Y5513821D01*
G01X4930117Y5513821D01*
G01X4929909Y5531716D01*
G01X4930486Y5565775D01*
G01X4932218Y5568373D01*
G01X4933445Y5569239D01*
G01X4934816Y5569527D01*
G01X4937125Y5569816D01*
G01X4944918Y5570104D01*
G01X4950186Y5570321D01*
G01X4952134Y5570971D01*
G01X4952134Y5573279D01*
G01X4951846Y5574723D01*
G01X4945496Y5574723D01*
G01X4938279Y5575011D01*
G01X4936259Y5575300D01*
G01X4933661Y5575589D01*
G01X4931352Y5576166D01*
G01X4928754Y5576743D01*
G01X4925579Y5577609D01*
G01X4923271Y5578764D01*
G01X4920961Y5579629D01*
G01X4919518Y5579918D01*
G01X4919518Y5540952D01*
G01X4919229Y5499966D01*
G01X4918075Y5497368D01*
G01X4916054Y5496214D01*
G01X4905952Y5495636D01*
G01X4905952Y5495636D01*
G01X4897004Y5495636D01*
G01X4814109Y5495636D01*
G01X4813877Y5527386D01*
G01X4814094Y5556755D01*
G01X4814743Y5567507D01*
G01X4816475Y5569527D01*
G01X4818207Y5570393D01*
G01X4821093Y5570682D01*
G01X4823979Y5570393D01*
G01X4830041Y5570104D01*
G01X4835236Y5570104D01*
G01X4835236Y5574723D01*
G01X4829752Y5574723D01*
G01X4821671Y5575011D01*
G01X4817629Y5575589D01*
G01X4815321Y5576166D01*
G01X4812723Y5576743D01*
G01X4809548Y5577609D01*
G01X4807239Y5578764D01*
G01X4804929Y5579629D01*
G01X4803486Y5579918D01*
G01X4677609Y5579918D01*
G01X4677352Y5581073D01*
G01X4676486Y5583959D01*
G01X4675332Y5586846D01*
G01X4674177Y5590021D01*
G01X4670425Y5597525D01*
G01X4667539Y5602143D01*
G01X4665518Y5605029D01*
G01X4663786Y5607339D01*
G01X4658879Y5612246D01*
G01X4800023Y5612246D01*
G01X4800311Y5609071D01*
G01X4801466Y5606184D01*
G01X4802909Y5604164D01*
G01X4802909Y5604164D01*
G01X4804641Y5602721D01*
G01X4808104Y5601566D01*
G01X4811279Y5601566D01*
G01X4813011Y5602432D01*
G01X4815032Y5603586D01*
G01X4817052Y5605607D01*
G01X4818496Y5608204D01*
G01X4819073Y5610514D01*
G01X4818784Y5611668D01*
G01X4914323Y5611668D01*
G01X4914900Y5608782D01*
G01X4916054Y5606473D01*
G01X4917209Y5605029D01*
G01X4918652Y5603586D01*
G01X4918652Y5603586D01*
G01X4920384Y5602432D01*
G01X4923271Y5601566D01*
G01X4926157Y5601566D01*
G01X4928177Y5602721D01*
G01X4930198Y5604164D01*
G01X4931641Y5605607D01*
G01X4932796Y5607339D01*
G01X4933373Y5609648D01*
G01X4933171Y5611668D01*
G01X5104823Y5611668D01*
G01X5105400Y5608782D01*
G01X5106554Y5606473D01*
G01X5107709Y5605029D01*
G01X5109152Y5603586D01*
G01X5109152Y5603586D01*
G01X5110884Y5602432D01*
G01X5113771Y5601566D01*
G01X5116657Y5601566D01*
G01X5118677Y5602721D01*
G01X5120698Y5604164D01*
G01X5122141Y5605607D01*
G01X5123296Y5607339D01*
G01X5123873Y5609648D01*
G01X5123584Y5612534D01*
G01X5122718Y5614843D01*
G01X5121564Y5616575D01*
G01X5120121Y5618018D01*
G01X5118389Y5619173D01*
G01X5114925Y5619750D01*
G01X5111173Y5619173D01*
G01X5108575Y5617729D01*
G01X5106554Y5615998D01*
G01X5105400Y5613977D01*
G01X5104823Y5611668D01*
G01X4933171Y5611668D01*
G01X4933084Y5612534D01*
G01X4932218Y5614843D01*
G01X4931064Y5616575D01*
G01X4929621Y5618018D01*
G01X4927889Y5619173D01*
G01X4924425Y5619750D01*
G01X4920673Y5619173D01*
G01X4918075Y5617729D01*
G01X4916054Y5615998D01*
G01X4914900Y5613977D01*
G01X4914323Y5611668D01*
G01X4818784Y5611668D01*
G01X4818496Y5612823D01*
G01X4817341Y5615421D01*
G01X4815898Y5617441D01*
G01X4813589Y5618884D01*
G01X4810702Y5619750D01*
G01X4807239Y5619461D01*
G01X4803775Y5618307D01*
G01X4801754Y5616575D01*
G01X4800600Y5614843D01*
G01X4800023Y5612246D01*
G01X4658879Y5612246D01*
G01X4656571Y5613977D01*
G01X4654550Y5615421D01*
G01X4651952Y5616864D01*
G01X4649354Y5618018D01*
G01X4646757Y5618884D01*
G01X4644448Y5619461D01*
G01X4639252Y5619750D01*
G01X4632902Y5619173D01*
G01X4629150Y5618018D01*
G01X4625975Y5616864D01*
G01X4623666Y5615998D01*
G01X4621646Y5615709D01*
G01X4618471Y5615998D01*
G01X4615007Y5617152D01*
G01X4612986Y5618884D01*
G01X4612481Y5619245D01*
G01X4612121Y5618596D01*
G01X4611543Y5616575D01*
G01X4610389Y5610225D01*
G01X4609811Y5607339D01*
G01X4608657Y5600411D01*
G01X4608079Y5597525D01*
G01X4606925Y5590598D01*
G01X4606636Y5588289D01*
G01X4607502Y5586268D01*
G01X4609523Y5585691D01*
G01X4610533Y5585979D01*
G01X4611254Y5586846D01*
G01X4612986Y5592041D01*
G01X4614141Y5594639D01*
G01X4615296Y5597525D01*
G01X4616450Y5599834D01*
G01X4617604Y5601854D01*
G01X4619336Y5604452D01*
G01X4621068Y5606761D01*
G01X4623954Y5609648D01*
G01X4625686Y5611091D01*
G01X4627707Y5612246D01*
G01X4629727Y5613111D01*
G01X4632036Y5613977D01*
G01X4637232Y5614554D01*
G01X4643293Y5613977D01*
G01X4646757Y5612534D01*
G01X4649643Y5610514D01*
G01X4651952Y5608782D01*
G01X4653396Y5607339D01*
G01X4656859Y5602721D01*
G01X4658302Y5600700D01*
G01X4659746Y5598102D01*
G01X4660900Y5595793D01*
G01X4662632Y5591752D01*
G01X4663498Y5589443D01*
G01X4664364Y5586268D01*
G01X4665229Y5583671D01*
G01X4666384Y5577321D01*
G01X4666961Y5573279D01*
G01X4667539Y5566929D01*
G01X4667827Y5555961D01*
G01X4667539Y5543261D01*
G01X4666384Y5534025D01*
G01X4665518Y5529407D01*
G01X4664652Y5526521D01*
G01X4664364Y5524500D01*
G01X4663786Y5522191D01*
G01X4661189Y5514398D01*
G01X4660323Y5512089D01*
G01X4657725Y5506893D01*
G01X4656282Y5504873D01*
G01X4655416Y5503429D01*
G01X4654261Y5501986D01*
G01X4652818Y5500543D01*
G01X4650798Y5498811D01*
G01X4648489Y5497368D01*
G01X4645891Y5496214D01*
G01X4643293Y5495348D01*
G01X4638964Y5495059D01*
G01X4633479Y5495348D01*
G01X4630593Y5495925D01*
G01X4628284Y5496502D01*
G01X4625686Y5497657D01*
G01X4623666Y5498811D01*
G01X4622223Y5499966D01*
G01X4621068Y5501409D01*
G01X4619914Y5503429D01*
G01X4619048Y5505739D01*
G01X4618759Y5519882D01*
G01X4619048Y5535179D01*
G01X4619914Y5538643D01*
G01X4621357Y5540664D01*
G01X4623089Y5541818D01*
G01X4627996Y5542396D01*
G01X4632036Y5542396D01*
G01X4632036Y5547014D01*
G01X4613852Y5547014D01*
G01X4600142Y5546797D01*
G01X4595379Y5546148D01*
G01X4580161Y5546148D01*
G01X4580082Y5546436D01*
G01X4578927Y5549611D01*
G01X4577773Y5552498D01*
G01X4576618Y5554807D01*
G01X4575464Y5556827D01*
G01X4574309Y5558559D01*
G01X4571423Y5562600D01*
G01X4570268Y5564043D01*
G01X4565939Y5568373D01*
G01X4564496Y5569527D01*
G01X4562764Y5570682D01*
G01X4560743Y5571836D01*
G01X4558434Y5572991D01*
G01X4555836Y5574146D01*
G01X4552950Y5575011D01*
G01X4550352Y5575589D01*
G01X4544868Y5575877D01*
G01X4538807Y5575589D01*
G01X4535921Y5575011D01*
G01X4531302Y5573857D01*
G01X4528993Y5572991D01*
G01X4526684Y5571836D01*
G01X4524086Y5570393D01*
G01X4521489Y5568661D01*
G01X4519468Y5566929D01*
G01X4516582Y5564043D01*
G01X4514850Y5561734D01*
G01X4512829Y5558848D01*
G01X4511386Y5556539D01*
G01X4509077Y5551921D01*
G01X4507923Y5549323D01*
G01X4506768Y5545571D01*
G01X4505902Y5542684D01*
G01X4505325Y5538643D01*
G01X4505036Y5533736D01*
G01X4484128Y5533736D01*
G01X4483966Y5536334D01*
G01X4483389Y5540952D01*
G01X4482811Y5543839D01*
G01X4481946Y5547591D01*
G01X4480791Y5551054D01*
G01X4479636Y5553652D01*
G01X4478482Y5555961D01*
G01X4477039Y5558559D01*
G01X4475307Y5561157D01*
G01X4473575Y5563177D01*
G01X4472421Y5564621D01*
G01X4470689Y5566641D01*
G01X4467802Y5568950D01*
G01X4464916Y5570971D01*
G01X4462607Y5572414D01*
G01X4458566Y5574146D01*
G01X4455968Y5575011D01*
G01X4453371Y5575589D01*
G01X4447886Y5575877D01*
G01X4442402Y5575589D01*
G01X4439227Y5575011D01*
G01X4435764Y5574146D01*
G01X4432877Y5572991D01*
G01X4430279Y5571836D01*
G01X4427971Y5570393D01*
G01X4425950Y5568950D01*
G01X4424507Y5568084D01*
G01X4423064Y5566929D01*
G01X4421621Y5565486D01*
G01X4419889Y5563466D01*
G01X4418446Y5561446D01*
G01X4417291Y5559425D01*
G01X4416136Y5557116D01*
G01X4415271Y5554807D01*
G01X4414404Y5552209D01*
G01X4413539Y5549034D01*
G01X4412961Y5546148D01*
G01X4412384Y5540952D01*
G01X4412096Y5536623D01*
G01X4358528Y5536623D01*
G01X4358409Y5553652D01*
G01X4358698Y5609648D01*
G01X4359564Y5611957D01*
G01X4361007Y5613400D01*
G01X4371686Y5613977D01*
G01X4381500Y5613977D01*
G01X4381500Y5618596D01*
G01X4374861Y5618596D01*
G01X4367357Y5618884D01*
G01X4361007Y5620039D01*
G01X4358698Y5620616D01*
G01X4356100Y5621482D01*
G01X4353502Y5622636D01*
G01X4351193Y5623791D01*
G01X4349173Y5624368D01*
G01X4348307Y5609071D01*
G01X4348018Y5563177D01*
G01X4347729Y5499966D01*
G01X4346575Y5497368D01*
G01X4344554Y5496214D01*
G01X4333875Y5495636D01*
G01X4333875Y5495636D01*
G01X4324350Y5495636D01*
G01X4305300Y5495636D01*
G01X4305300Y5651500D01*
G01X5448300Y5651500D01*
G01X5448300Y5461000D01*
G01X4305300Y5461000D01*
G37*
G36*
G01X4471266Y5549034D02*
G01X4471843Y5546148D01*
G01X4472132Y5541529D01*
G01X4471843Y5537489D01*
G01X4448175Y5537200D01*
G01X4424796Y5537200D01*
G01X4424796Y5541529D01*
G01X4425084Y5547879D01*
G01X4425661Y5551343D01*
G01X4426527Y5554518D01*
G01X4427682Y5557693D01*
G01X4428836Y5560002D01*
G01X4430279Y5562311D01*
G01X4432011Y5564332D01*
G01X4434898Y5567218D01*
G01X4436629Y5568373D01*
G01X4438939Y5569527D01*
G01X4441248Y5570393D01*
G01X4446154Y5570682D01*
G01X4451639Y5570393D01*
G01X4453948Y5569816D01*
G01X4455968Y5569239D01*
G01X4457700Y5568373D01*
G01X4459721Y5567218D01*
G01X4461741Y5565775D01*
G01X4465204Y5562311D01*
G01X4467225Y5559425D01*
G01X4468668Y5556827D01*
G01X4470400Y5552209D01*
G01X4471266Y5549034D01*
G37*
G36*
G01X4555836Y5497368D02*
G01X4553816Y5496214D01*
G01X4551218Y5495348D01*
G01X4549198Y5494771D01*
G01X4545157Y5494482D01*
G01X4538807Y5494771D01*
G01X4535054Y5495636D01*
G01X4532457Y5496791D01*
G01X4530436Y5497946D01*
G01X4528993Y5498811D01*
G01X4527550Y5499966D01*
G01X4526107Y5501409D01*
G01X4524375Y5503429D01*
G01X4522932Y5505450D01*
G01X4521777Y5507471D01*
G01X4520623Y5509779D01*
G01X4519757Y5512089D01*
G01X4518891Y5514686D01*
G01X4518025Y5518150D01*
G01X4517448Y5521325D01*
G01X4517159Y5531139D01*
G01X4517448Y5540952D01*
G01X4517736Y5543261D01*
G01X4518314Y5546725D01*
G01X4519179Y5549611D01*
G01X4519757Y5551921D01*
G01X4520623Y5554229D01*
G01X4523221Y5559425D01*
G01X4524664Y5561446D01*
G01X4525818Y5562889D01*
G01X4530148Y5567218D01*
G01X4531879Y5568373D01*
G01X4535343Y5570104D01*
G01X4537941Y5570971D01*
G01X4540539Y5571548D01*
G01X4543136Y5571836D01*
G01X4545734Y5571548D01*
G01X4547754Y5571259D01*
G01X4550064Y5570682D01*
G01X4552661Y5569527D01*
G01X4554971Y5568373D01*
G01X4556702Y5567218D01*
G01X4559589Y5564909D01*
G01X4561609Y5562889D01*
G01X4563341Y5560579D01*
G01X4564784Y5558559D01*
G01X4566227Y5555961D01*
G01X4567382Y5553075D01*
G01X4568536Y5549611D01*
G01X4569402Y5546725D01*
G01X4569979Y5542684D01*
G01X4570268Y5533159D01*
G01X4569979Y5523057D01*
G01X4569402Y5519593D01*
G01X4568825Y5516707D01*
G01X4568248Y5514398D01*
G01X4567382Y5511800D01*
G01X4566227Y5509202D01*
G01X4565073Y5506893D01*
G01X4563629Y5504584D01*
G01X4561898Y5502564D01*
G01X4558434Y5499100D01*
G01X4555836Y5497368D01*
G37*
G04 Text End*

G04 Pad Start*
G54D12*
G01X9621888Y3974402D03*
G01X9621888Y4839399D03*
G54D13*
G01X10041903Y3974402D03*
G01X10041903Y4839399D03*
G54D14*
G01X5485702Y3382912D03*
G01X6350699Y3382912D03*
G54D15*
G01X5485702Y2962897D03*
G01X6350699Y2962897D03*
G54D17*
G01X3083408Y3014904D03*
G01X1793392Y3014904D03*
G01X4937608Y3014904D03*
G01X3647592Y3014904D03*
G54D14*
G01X7441502Y3370212D03*
G01X8306499Y3370212D03*
G54D15*
G01X7441502Y2950197D03*
G01X8306499Y2950197D03*
G04 Pad End*

G04 Via Start*
G54D18*
G01X6578600Y3493364D03*
G01X5821861Y3563439D03*
G01X5898061Y4157823D03*
G01X5851660Y4096460D03*
G01X7769470Y3880309D03*
G01X7715588Y3826427D03*
G01X4422120Y4558417D03*
G01X4422120Y4482217D03*
G01X4322859Y4244320D03*
G01X4246659Y4244320D03*
G01X1866900Y4114800D03*
G01X3422490Y3911596D03*
G01X4521200Y4622800D03*
G01X4995433Y4851400D03*
G01X4330700Y5257800D03*
G01X3962400Y4635500D03*
G01X4991100Y5016500D03*
G01X5461000Y3751761D03*
G01X7099300Y3409798D03*
G01X9194800Y4970961D03*
G01X8775700Y4635500D03*
G01X8572500Y4419600D03*
G04 Via End*

G04 Track Start*
G54D11*
G01X6578600Y3493364D02*
G01X6476136Y3493364D01*
G01X6413500Y3556000D01*
G01X5829300Y3556000D01*
G01X5821861Y3563439D01*
G01X5898061Y4157823D02*
G01X5937588Y4118295D01*
G01X5963029Y4067709D02*
G01X7273391Y4067709D01*
G01X7391400Y3949700D01*
G01X5851660Y4096460D02*
G01X5891187Y4056933D01*
G01X5946196Y4027069D02*
G01X7256557Y4027069D01*
G01X5937588Y4118295D02*
G01X5937588Y4093150D01*
G01X5891187Y4056933D02*
G01X5916332Y4056933D01*
G01X5937588Y4093150D02*
G01X5963029Y4067709D01*
G01X5916332Y4056933D02*
G01X5946196Y4027069D01*
G01X7374566Y3909060D02*
G01X7658100Y3909060D01*
G01X7729942Y3919836D02*
G01X7769470Y3880309D01*
G01X7676061Y3865955D02*
G01X7715588Y3826427D01*
G01X7704797Y3919836D02*
G01X7729942Y3919836D01*
G01X7658100Y3909060D02*
G01X7676061Y3891099D01*
G01X7676061Y3865955D01*
G01X7674934Y3949700D02*
G01X7704797Y3919836D01*
G01X7256557Y4027069D02*
G01X7374566Y3909060D01*
G01X7391400Y3949700D02*
G01X7674934Y3949700D01*
G01X4422120Y4482217D02*
G01X4366220Y4482217D01*
G01X4323040Y4499997D02*
G01X4305079Y4482036D01*
G01X4422120Y4558417D02*
G01X4366220Y4558417D01*
G01X4306206Y4540637D02*
G01X4264439Y4498870D01*
G01X4366220Y4482217D02*
G01X4348440Y4499997D01*
G01X4323040Y4499997D01*
G01X4366220Y4558417D02*
G01X4348440Y4540637D01*
G01X4306206Y4540637D01*
G01X4305079Y4482036D02*
G01X4305079Y4318000D01*
G01X4264439Y4498870D02*
G01X4264439Y4318000D01*
G01X4322859Y4300220D02*
G01X4322859Y4244320D01*
G01X4246659Y4300220D02*
G01X4246659Y4244320D01*
G01X4305079Y4318000D02*
G01X4322859Y4300220D01*
G01X4264439Y4318000D02*
G01X4246659Y4300220D01*
G04 Track End*

M02*

