G04 Layer: DrillDrawingLayer*
G04 EasyEDA Pro v2.2.46.11, 2026-03-26 18:28:20*
G04 Gerber Generator version 0.3*
G04 Scale: 100 percent, Rotated: No, Reflected: No*
G04 Dimensions in millimeters*
G04 Leading zeros omitted, absolute positions, 4 integers and 5 decimals*
G04 Generated by one-click*
%FSLAX45Y45*%
%MOMM*%
%AMIconRect*4,1,4,0.28,-0.28,-0.28,-0.28,-0.28,0.28,0.28,0.28,0.28,-0.28,0*4,0,4,0.233333,-0.233333,0.233333,0.233333,-0.233333,0.233333,-0.233333,-0.233333,0.233333,-0.233333,0*%
%AMIconTriangle*4,1,3,-0.339593,0.240473,0.339593,0.240473,0,-0.37884,-0.339593,0.240473,0*4,0,3,-0.265673,0.19404,0,-0.27342,0.266233,0.19404,-0.265673,0.19404,0*%
%AMIconStar6*4,1,12,0.12068,0.20888,0.298527,0.172713,0.241313,0,0.298527,-0.17206,0.12068,-0.208227,0,-0.344073,-0.120073,-0.208227,-0.298573,-0.17206,-0.240707,0,-0.298573,0.17206,-0.120073,0.20888,0,0.344073,0.12068,0.20888,0*4,0,12,-0.000467,0.273467,-0.090067,0.171733,-0.237533,0.136733,-0.193667,-0.007467,-0.237533,-0.1372,-0.090067,-0.171733,-0.000467,-0.273933,0.090067,-0.171733,0.237533,-0.1372,0.194133,0.007,0.237533,0.1372,0.090067,0.171267,-0.000467,0.273467,0*%
%AMIconStar4*4,1,8,-0.311733,0.311733,0,0.202533,0.311733,0.311733,0.202533,0,0.311733,-0.311733,0,-0.202533,-0.304407,-0.311733,-0.202533,0,-0.311733,0.311733,0*4,0,8,0.233333,-0.233333,0.1512,0,0.233333,0.233333,0,0.1512,-0.233333,0.233333,-0.1512,0,-0.233333,-0.233333,0,-0.1512,0.233333,-0.233333,0*%
%ADD10IconRect*%
%ADD11C,0.616X0.522667*%
%ADD12IconTriangle*%
%ADD13IconStar6*%
%ADD14IconStar4*%
G75*


G04 Drill Drawing Start*
G54D10*
G01X1793392Y3014904D03*
G01X3083408Y3014904D03*
G01X3647592Y3014904D03*
G01X4937608Y3014904D03*
G54D11*
G01X5485702Y3382912D03*
G01X6350699Y3382912D03*
G01X7441502Y3370212D03*
G01X8306499Y3370212D03*
G01X9621888Y3974402D03*
G01X9621888Y4839399D03*
G54D12*
G01X5485702Y2962897D03*
G01X6350699Y2962897D03*
G01X7441502Y2950197D03*
G01X8306499Y2950197D03*
G01X10041903Y3974402D03*
G01X10041903Y4839399D03*
G54D13*
G01X5629212Y3330893D03*
G01X6207214Y3330893D03*
G01X7585012Y3318193D03*
G01X8163014Y3318193D03*
G01X9673908Y4117912D03*
G01X9673908Y4695914D03*
G54D14*
G01X1866900Y4114800D03*
G01X3422490Y3911596D03*
G01X3962400Y4635500D03*
G01X4246659Y4244320D03*
G01X4322859Y4244320D03*
G01X4330700Y5257800D03*
G01X4422120Y4482217D03*
G01X4422120Y4558417D03*
G01X4521200Y4622800D03*
G01X4991100Y5016500D03*
G01X4995433Y4851400D03*
G01X5461000Y3751761D03*
G01X5821861Y3563439D03*
G01X5851660Y4096460D03*
G01X5898061Y4157823D03*
G01X6578600Y3493364D03*
G01X7099300Y3409798D03*
G01X7715588Y3826427D03*
G01X7769470Y3880309D03*
G01X8572500Y4419600D03*
G01X8775700Y4635500D03*
G01X9194800Y4970961D03*
G04 Drill Drawing End*

M02*

