G04 Layer: TopSolderMaskLayer*
G04 EasyEDA Pro v2.2.46.11, 2026-03-26 18:28:20*
G04 Gerber Generator version 0.3*
G04 Scale: 100 percent, Rotated: No, Reflected: No*
G04 Dimensions in millimeters*
G04 Leading zeros omitted, absolute positions, 4 integers and 5 decimals*
G04 Generated by one-click*
%FSLAX45Y45*%
%MOMM*%
%AMRoundRect*1,1,$1,$2,$3*1,1,$1,$4,$5*1,1,$1,0-$2,0-$3*1,1,$1,0-$4,0-$5*20,1,$1,$2,$3,$4,$5,0*20,1,$1,$4,$5,0-$2,0-$3,0*20,1,$1,0-$2,0-$3,0-$4,0-$5,0*20,1,$1,0-$4,0-$5,$2,$3,0*4,1,4,$2,$3,$4,$5,0-$2,0-$3,0-$4,0-$5,$2,$3,0*%
%ADD10RoundRect,0.09131X-0.40514X0.45514X0.40514X0.45514*%
%ADD11RoundRect,0.09131X-0.45514X-0.40514X-0.45514X0.40514*%
%ADD12RoundRect,0.09138X-0.40835X0.43711X0.40835X0.43711*%
%ADD13RoundRect,0.09138X-0.43711X-0.40835X-0.43711X0.40835*%
%ADD14RoundRect,0.0778X-0.61111X0.13612X0.61111X0.13612*%
%ADD15RoundRect,0.08669X-0.55667X-0.28168X-0.55667X0.28168*%
%ADD16RoundRect,0.08002X-0.56X-0.16X-0.56X0.16*%
%ADD17O,2.10002X1.20002*%
%ADD18O,1.9042X1.30002*%
%ADD19O,1.90002X1.30002*%
%ADD20RoundRect,0.08669X-0.28168X0.55667X0.28168X0.55667*%
%ADD21RoundRect,0.08002X-0.16X0.56X0.16X0.56*%
%ADD22O,1.20002X2.10002*%
%ADD23O,1.30002X1.90002*%
%ADD24RoundRect,0.0938X-0.56389X1.4439X0.56389X1.4439*%
%ADD25O,1.3016X3.20159*%
G75*


G04 Pad Start*
G54D10*
G01X9048598Y4787900D03*
G01X9188602Y4787900D03*
G01X5556098Y3606800D03*
G01X5696102Y3606800D03*
G54D11*
G01X7264400Y3409798D03*
G01X7264400Y3549802D03*
G54D10*
G01X1860702Y3911592D03*
G01X1720698Y3911592D03*
G01X3600298Y3911600D03*
G01X3740302Y3911600D03*
G01X4247998Y4686300D03*
G01X4388002Y4686300D03*
G01X4095598Y4508500D03*
G01X4235602Y4508500D03*
G01X4247998Y5080000D03*
G01X4388002Y5080000D03*
G01X4247998Y4889500D03*
G01X4388002Y4889500D03*
G01X5162398Y4749800D03*
G01X5302402Y4749800D03*
G01X5162398Y4927600D03*
G01X5302402Y4927600D03*
G54D12*
G01X9333636Y4254500D03*
G01X9182964Y4254500D03*
G01X9206636Y4584700D03*
G01X9055964Y4584700D03*
G01X8139836Y3723770D03*
G01X7989164Y3723770D03*
G01X7430364Y3683000D03*
G01X7581036Y3683000D03*
G01X6336436Y3733800D03*
G01X6185764Y3733800D03*
G54D13*
G01X6578600Y3644036D03*
G01X6578600Y3493364D03*
G54D14*
G01X4995433Y4376992D03*
G01X4995433Y4430001D03*
G01X4995433Y4482986D03*
G01X4995433Y4535996D03*
G01X4995433Y4588980D03*
G01X4995433Y4641990D03*
G01X4995433Y4695000D03*
G01X4995433Y4747984D03*
G01X4635414Y4747984D03*
G01X4635414Y4695000D03*
G01X4635414Y4641990D03*
G01X4635414Y4588980D03*
G01X4635414Y4535996D03*
G01X4635414Y4482986D03*
G01X4635414Y4430001D03*
G01X4635414Y4376992D03*
G54D15*
G01X9566897Y4086898D03*
G01X9566897Y4166908D03*
G54D16*
G01X9566897Y4231907D03*
G01X9566897Y4281919D03*
G01X9566897Y4331907D03*
G01X9566897Y4381894D03*
G01X9566897Y4431906D03*
G01X9566897Y4481894D03*
G01X9566897Y4531906D03*
G01X9566897Y4581919D03*
G54D15*
G01X9566897Y4646917D03*
G01X9566897Y4726902D03*
G54D17*
G01X9621888Y3974402D03*
G01X9621888Y4839399D03*
G54D19*
G01X10041903Y3974402D03*
G01X10041903Y4839399D03*
G54D20*
G01X5598198Y3437903D03*
G01X5678208Y3437903D03*
G54D21*
G01X5743207Y3437903D03*
G01X5793219Y3437903D03*
G01X5843207Y3437903D03*
G01X5893194Y3437903D03*
G01X5943206Y3437903D03*
G01X5993194Y3437903D03*
G01X6043206Y3437903D03*
G01X6093219Y3437903D03*
G54D20*
G01X6158217Y3437903D03*
G01X6238202Y3437903D03*
G54D22*
G01X5485702Y3382912D03*
G01X6350699Y3382912D03*
G54D23*
G01X5485702Y2962897D03*
G01X6350699Y2962897D03*
G54D24*
G01X2788387Y3893896D03*
G01X2538400Y3893896D03*
G01X2338400Y3893896D03*
G01X2088413Y3893896D03*
G54D25*
G01X3083408Y3014904D03*
G01X1793392Y3014904D03*
G54D24*
G01X4642587Y3893896D03*
G01X4392600Y3893896D03*
G01X4192600Y3893896D03*
G01X3942613Y3893896D03*
G54D25*
G01X4937608Y3014904D03*
G01X3647592Y3014904D03*
G54D20*
G01X7553998Y3425203D03*
G01X7634008Y3425203D03*
G54D21*
G01X7699007Y3425203D03*
G01X7749019Y3425203D03*
G01X7799007Y3425203D03*
G01X7848994Y3425203D03*
G01X7899006Y3425203D03*
G01X7948994Y3425203D03*
G01X7999006Y3425203D03*
G01X8049019Y3425203D03*
G54D20*
G01X8114017Y3425203D03*
G01X8194002Y3425203D03*
G54D22*
G01X7441502Y3370212D03*
G01X8306499Y3370212D03*
G54D23*
G01X7441502Y2950197D03*
G01X8306499Y2950197D03*
G04 Pad End*

M02*

